<?xml version="1.0" standalone="no"?>
<!DOCTYPE svg PUBLIC "-//W3C//DTD SVG 20010904//EN"
 "http://www.w3.org/TR/2001/REC-SVG-20010904/DTD/svg10.dtd">
<svg version="1.0" xmlns="http://www.w3.org/2000/svg"
 width="1280.000000pt" height="1280.000000pt" viewBox="0 0 1280.000000 1280.000000"
 preserveAspectRatio="xMidYMid meet">
<metadata>
Created by potrace 1.11, written by Peter Selinger 2001-2013
</metadata>
<g transform="translate(0.000000,1280.000000) scale(0.100000,-0.100000)"
fill="#000000" stroke="none">
<path d="M8828 10491 c-6 -11 -18 -17 -26 -13 -10 3 -13 1 -8 -6 4 -7 4 -12
-1 -13 -27 -2 -47 -9 -56 -18 -6 -6 -19 -11 -30 -11 -10 0 -15 -4 -12 -10 3
-6 -1 -7 -9 -4 -11 4 -16 0 -16 -12 0 -15 -2 -16 -9 -5 -6 9 -11 10 -15 2 -4
-6 -12 -9 -17 -6 -5 4 -9 1 -9 -4 0 -6 -7 -11 -16 -11 -8 0 -13 -4 -10 -9 3
-4 -6 -7 -19 -5 -14 1 -23 -1 -20 -5 2 -5 -7 -13 -21 -20 -14 -6 -23 -7 -19
-2 3 5 -8 3 -25 -5 -16 -9 -30 -19 -30 -24 0 -4 -7 -11 -16 -14 -15 -6 -15 -4
-3 11 13 16 12 17 -3 5 -10 -8 -23 -10 -30 -6 -9 6 -9 3 1 -10 8 -9 10 -16 5
-14 -5 1 -20 -4 -33 -11 -13 -7 -21 -8 -17 -2 5 7 1 9 -8 5 -9 -3 -13 -11 -9
-17 4 -6 -2 -8 -16 -4 -15 3 -24 0 -28 -9 -3 -8 -12 -13 -20 -10 -9 4 -11 2
-7 -6 5 -7 -1 -9 -20 -4 -16 4 -26 2 -26 -4 0 -6 6 -8 13 -4 9 6 8 3 -1 -8 -8
-9 -20 -14 -28 -11 -8 3 -14 0 -14 -7 0 -9 -4 -9 -17 1 -9 8 -14 10 -11 4 9
-14 -13 -31 -39 -29 -14 1 -23 -4 -23 -13 0 -8 -4 -12 -9 -9 -5 4 -12 0 -14
-6 -4 -10 -6 -10 -6 1 -1 8 -9 5 -22 -10 -11 -13 -17 -17 -13 -9 7 13 5 13 -8
2 -9 -7 -20 -12 -24 -11 -15 4 -44 -13 -39 -21 3 -4 -2 -10 -10 -14 -8 -3 -15
0 -15 7 -1 7 -5 6 -13 -4 -7 -9 -16 -18 -22 -20 -5 -2 -9 -7 -8 -11 2 -4 -4
-5 -13 -1 -9 3 -19 1 -23 -5 -6 -11 -35 -19 -71 -21 -13 -1 -13 -2 0 -11 15
-10 6 -13 -42 -13 -10 0 -15 -4 -12 -8 3 -5 0 -9 -6 -9 -6 0 -9 -4 -6 -8 3 -5
-1 -9 -9 -9 -8 0 -11 5 -8 11 4 6 0 5 -9 -1 -8 -7 -19 -9 -23 -5 -5 4 -5 -1
-2 -10 4 -12 2 -15 -7 -12 -8 3 -17 0 -21 -6 -5 -8 -11 -8 -21 1 -12 10 -13 9
-8 -6 5 -13 4 -16 -4 -11 -7 4 -12 2 -12 -4 0 -6 -4 -8 -10 -5 -5 3 -10 2 -10
-4 0 -6 -6 -8 -14 -5 -7 3 -26 -6 -41 -20 -29 -27 -41 -33 -30 -17 3 5 1 12
-4 15 -5 3 -11 -2 -13 -12 -3 -10 -11 -19 -19 -20 -43 -5 -59 -9 -66 -17 -5
-4 -3 -5 3 -2 7 4 18 -1 25 -10 12 -14 11 -15 -11 -8 -23 6 -23 6 -7 -7 10 -7
19 -23 20 -36 0 -12 6 -22 12 -23 5 0 1 -4 -10 -9 -19 -8 -19 -9 2 -9 16 -1
20 -6 16 -21 -3 -11 -1 -20 4 -20 5 0 10 -17 11 -37 2 -20 11 -43 20 -51 16
-13 16 -13 0 -8 -12 3 -15 1 -11 -9 3 -8 9 -12 14 -9 6 3 8 -6 5 -20 -3 -17
-1 -24 6 -20 6 4 8 -1 3 -15 -4 -14 -2 -23 8 -27 9 -3 14 -17 13 -35 -1 -16 1
-29 5 -29 4 0 5 -9 2 -20 -3 -12 0 -20 6 -20 7 0 9 5 5 12 -4 7 -3 8 4 4 9 -5
9 -13 1 -28 -8 -15 -8 -23 1 -32 8 -8 10 -7 5 5 -4 10 -3 19 2 22 5 3 10 -3
11 -14 1 -10 2 -25 3 -31 1 -7 -1 -24 -5 -38 -6 -19 -5 -21 3 -10 10 15 12 13
15 -12 1 -13 36 -20 36 -7 0 5 9 9 20 9 11 0 20 5 20 11 0 6 7 8 16 5 8 -3 13
-2 10 3 -9 14 20 21 34 8 10 -9 11 -9 6 1 -4 6 -2 12 4 12 6 0 9 4 5 9 -3 6 4
8 15 6 11 -2 20 1 20 7 0 5 7 7 15 4 9 -3 18 1 21 9 3 7 19 17 36 20 16 4 32
13 35 21 4 10 10 11 23 4 13 -7 21 -6 26 2 4 7 3 8 -4 4 -7 -4 -12 -5 -12 -2
0 2 14 11 30 20 20 9 28 10 24 3 -3 -7 2 -3 10 7 9 11 16 16 16 12 0 -5 7 -3
15 4 8 7 22 10 30 6 9 -3 14 -2 11 3 -3 5 1 14 9 21 13 11 14 10 9 -6 -6 -14
-2 -13 13 6 18 21 23 22 36 11 14 -11 16 -10 13 6 -3 13 2 19 17 21 12 0 23 6
25 12 2 5 8 8 13 4 5 -3 9 -1 9 3 0 5 12 10 28 11 15 1 32 8 37 16 10 13 16
16 36 16 5 0 7 4 4 10 -3 6 1 7 9 4 9 -3 16 -1 16 6 0 6 5 8 11 5 6 -4 22 4
36 16 15 13 23 18 19 12 -5 -9 -2 -11 8 -7 9 3 13 11 9 18 -4 6 2 4 12 -4 10
-8 16 -10 13 -5 -8 13 19 38 27 25 9 -15 34 0 28 17 -4 10 -2 14 4 10 14 -9
74 14 95 36 10 12 17 14 20 6 3 -8 8 -7 19 3 8 8 20 13 28 10 8 -3 11 0 7 7
-5 7 1 11 14 11 12 0 19 4 16 8 -10 16 42 11 55 -6 12 -15 12 -16 -2 -4 -14
11 -16 9 -11 -13 2 -14 9 -22 16 -19 6 3 3 -1 -6 -8 -15 -13 -15 -15 0 -27 15
-11 15 -11 -2 -6 -16 5 -17 3 -6 -10 10 -12 9 -15 -6 -16 -14 -1 -13 -3 6 -9
20 -6 21 -8 6 -9 -16 -1 -17 -4 -8 -13 9 -9 8 -16 -6 -32 -13 -16 -13 -18 -1
-8 9 6 19 9 22 5 4 -3 -1 -12 -11 -19 -10 -8 -12 -13 -4 -14 6 0 12 -5 12 -11
0 -5 -5 -7 -11 -3 -8 5 -8 1 0 -14 14 -27 14 -35 -1 -26 -9 5 -9 2 1 -9 11
-14 11 -17 0 -17 -8 0 -5 -6 7 -14 18 -14 18 -15 1 -21 -17 -7 -17 -8 0 -21
17 -13 17 -14 -2 -7 -18 6 -18 5 -6 -10 12 -16 12 -17 -5 -10 -16 6 -17 5 -4
-9 8 -9 18 -14 23 -11 4 2 7 -1 7 -6 0 -6 -8 -11 -17 -11 -13 0 -14 -3 -5 -12
14 -14 16 -32 4 -24 -5 3 -9 -1 -9 -9 0 -8 4 -12 9 -9 4 3 8 1 8 -5 0 -5 -6
-12 -12 -14 -10 -4 -10 -6 0 -6 6 -1 12 -6 12 -12 0 -5 -5 -7 -11 -3 -8 5 -9
2 -1 -12 6 -10 7 -27 2 -40 -6 -14 -4 -31 5 -48 9 -16 10 -24 3 -20 -8 5 -9
-2 -5 -24 4 -20 2 -32 -6 -36 -7 -2 -4 -5 6 -5 9 -1 17 -6 17 -12 0 -5 -3 -8
-8 -5 -4 2 -12 -6 -19 -20 -8 -18 -8 -26 3 -35 17 -14 18 -32 2 -24 -7 4 -4
-1 6 -9 19 -16 19 -16 1 -16 -15 0 -16 -3 -7 -12 14 -14 16 -32 4 -24 -5 3 -9
-1 -9 -9 0 -8 4 -12 9 -9 14 9 9 -9 -9 -29 -10 -11 -12 -17 -5 -13 8 5 12 -1
12 -18 0 -32 -3 -42 -12 -39 -4 2 2 -13 13 -33 13 -25 16 -35 7 -31 -10 3 -13
-4 -10 -29 3 -21 8 -32 16 -28 6 3 2 -2 -8 -10 -13 -11 -15 -16 -6 -16 9 0 8
-6 -6 -22 -12 -14 -13 -18 -3 -10 9 6 19 9 22 5 4 -3 -1 -12 -11 -19 -10 -8
-12 -13 -4 -14 6 0 12 -5 12 -11 0 -5 -5 -7 -11 -3 -8 5 -8 1 0 -14 14 -27 14
-35 -1 -26 -9 5 -9 2 1 -9 11 -14 11 -17 0 -17 -8 0 -5 -6 7 -14 18 -14 18
-15 1 -21 -17 -7 -17 -8 0 -21 17 -13 17 -14 -2 -7 -18 6 -18 5 -6 -10 12 -16
12 -17 -5 -10 -16 6 -17 5 -4 -9 8 -9 18 -14 23 -11 4 2 7 -1 7 -6 0 -6 -8
-11 -17 -11 -13 0 -14 -3 -5 -12 14 -14 16 -32 4 -24 -5 3 -9 -1 -9 -9 0 -8 4
-12 9 -9 4 3 8 1 8 -5 0 -5 -6 -12 -12 -14 -10 -4 -10 -6 0 -6 6 -1 12 -6 12
-12 0 -5 -5 -7 -11 -3 -8 5 -9 2 -1 -12 6 -10 7 -27 2 -40 -6 -14 -4 -31 5
-48 9 -16 10 -24 3 -20 -8 5 -9 -2 -5 -24 4 -20 2 -32 -6 -36 -7 -2 -4 -5 6
-5 9 -1 17 -6 17 -12 0 -5 -3 -8 -8 -5 -4 2 -12 -6 -19 -20 -8 -18 -8 -26 3
-35 17 -14 18 -32 2 -24 -7 4 -4 -1 6 -9 19 -16 19 -16 1 -16 -15 0 -16 -3 -7
-12 14 -14 16 -32 4 -24 -5 3 -9 -1 -9 -9 0 -8 4 -12 9 -9 14 9 9 -9 -9 -29
-10 -11 -12 -17 -5 -13 8 5 12 -1 12 -18 0 -32 -3 -42 -12 -39 -4 2 2 -13 13
-33 13 -25 16 -35 7 -31 -10 3 -13 -4 -10 -29 3 -21 8 -32 16 -28 6 3 2 -2 -8
-10 -15 -12 -16 -16 -5 -16 12 0 12 -2 -1 -10 -10 -6 -11 -10 -2 -10 6 0 12
-5 12 -11 0 -5 -5 -7 -11 -3 -8 5 -9 2 -1 -12 6 -10 7 -27 2 -40 -6 -14 -4
-31 5 -48 9 -16 10 -24 3 -20 -8 5 -9 -2 -5 -24 4 -20 2 -32 -6 -36 -7 -2 -4
-5 6 -5 9 -1 17 -6 17 -12 0 -5 -3 -8 -8 -5 -4 2 -12 -6 -19 -20 -8 -18 -8
-26 3 -35 17 -14 18 -32 2 -24 -7 4 -4 -1 6 -9 19 -16 19 -16 1 -16 -15 0 -16
-3 -7 -12 14 -14 16 -32 4 -24 -5 3 -9 -1 -9 -9 0 -8 4 -12 9 -9 14 9 9 -9 -9
-29 -10 -11 -12 -17 -5 -13 8 5 12 -1 12 -18 0 -32 -3 -42 -12 -39 -4 2 2 -13
13 -33 13 -25 16 -35 7 -31 -10 3 -13 -4 -10 -29 3 -21 8 -32 16 -28 6 3 2 -2
-8 -10 -13 -11 -15 -16 -6 -16 9 0 8 -6 -6 -22 -12 -14 -13 -18 -3 -10 9 6 19
9 22 5 4 -3 -1 -12 -11 -19 -10 -8 -12 -13 -4 -14 6 0 12 -5 12 -11 0 -5 -5
-7 -11 -3 -8 5 -8 1 0 -14 14 -27 14 -35 -1 -26 -9 5 -9 2 1 -9 11 -14 11 -17
0 -17 -8 0 -5 -6 7 -14 18 -14 18 -15 1 -21 -17 -7 -17 -8 0 -21 17 -13 17
-14 -2 -7 -18 6 -18 5 -6 -10 12 -16 12 -17 -5 -10 -16 6 -17 5 -4 -9 8 -9 18
-14 23 -11 4 2 7 -1 7 -6 0 -6 -8 -11 -17 -11 -13 0 -14 -3 -5 -12 14 -14 16
-32 4 -24 -5 3 -9 -1 -9 -9 0 -8 4 -12 9 -9 4 3 8 1 8 -5 0 -5 -6 -12 -12 -14
-10 -4 -10 -6 0 -6 6 -1 12 -6 12 -12 0 -5 -5 -7 -11 -3 -8 5 -9 2 -1 -12 6
-10 7 -27 2 -40 -6 -14 -4 -31 5 -48 9 -16 10 -24 3 -20 -8 5 -9 -2 -5 -24 4
-20 2 -32 -6 -36 -7 -2 -4 -5 6 -5 9 -1 17 -6 17 -12 0 -5 -3 -8 -8 -5 -4 2
-12 -6 -19 -20 -8 -18 -8 -26 3 -35 17 -14 18 -32 2 -24 -7 4 -4 -1 6 -9 19
-16 19 -16 1 -16 -15 0 -16 -3 -7 -12 14 -14 16 -32 4 -24 -5 3 -9 -1 -9 -9 0
-8 4 -12 9 -9 14 9 9 -9 -9 -29 -10 -11 -12 -17 -5 -13 8 5 12 -1 12 -18 0
-32 -3 -42 -12 -39 -4 2 2 -13 13 -33 13 -25 16 -35 7 -31 -10 3 -13 -4 -10
-29 3 -21 8 -32 16 -28 6 3 2 -2 -8 -10 -13 -11 -15 -16 -6 -16 9 0 8 -6 -6
-22 -12 -14 -13 -18 -3 -10 9 6 19 9 22 5 4 -3 -1 -12 -11 -19 -10 -8 -12 -13
-4 -14 6 0 12 -5 12 -11 0 -5 -5 -7 -11 -3 -8 5 -8 1 0 -14 14 -27 14 -35 -1
-26 -9 5 -9 2 1 -9 11 -14 11 -17 0 -17 -8 0 -5 -6 7 -14 18 -14 18 -15 1 -21
-17 -7 -17 -8 0 -21 17 -13 17 -14 -2 -7 -18 6 -18 5 -6 -10 12 -16 12 -17 -5
-10 -16 6 -17 5 -4 -9 8 -9 18 -14 23 -11 4 2 7 -1 7 -6 0 -6 -8 -11 -17 -11
-13 0 -14 -3 -5 -12 14 -14 16 -32 4 -24 -5 3 -9 -1 -9 -9 0 -8 4 -12 9 -9 4
3 8 1 8 -5 0 -5 -6 -12 -12 -14 -10 -4 -10 -6 0 -6 6 -1 12 -6 12 -12 0 -5 -5
-7 -11 -3 -8 5 -9 2 -1 -12 6 -10 7 -27 2 -40 -6 -14 -4 -31 5 -48 9 -16 10
-24 3 -20 -8 5 -9 -2 -5 -24 4 -20 2 -32 -6 -36 -7 -2 -4 -5 6 -5 9 -1 17 -6
17 -12 0 -5 -3 -8 -8 -5 -4 2 -12 -6 -19 -20 -8 -18 -8 -26 3 -35 17 -14 18
-32 2 -24 -7 4 -4 -1 6 -9 19 -16 19 -16 1 -16 -15 0 -16 -3 -7 -12 14 -14 16
-32 4 -24 -5 3 -9 -1 -9 -9 0 -8 4 -12 9 -9 14 9 9 -9 -9 -29 -10 -11 -12 -17
-5 -13 8 5 12 -1 12 -18 0 -32 -3 -42 -12 -39 -4 2 2 -13 13 -33 13 -25 16
-35 7 -31 -10 3 -13 -4 -10 -29 3 -21 8 -32 16 -28 6 3 2 -2 -8 -10 -15 -12
-16 -16 -5 -16 12 0 12 -2 -1 -10 -10 -6 -11 -10 -2 -10 6 0 12 -5 12 -11 0
-5 -5 -7 -11 -3 -8 5 -9 2 -1 -12 6 -10 7 -27 2 -40 -6 -14 -4 -31 5 -48 8
-15 11 -25 7 -22 -5 3 -13 -4 -19 -14 -10 -16 -9 -17 10 -12 21 5 21 5 4 -12
-10 -10 -15 -21 -12 -24 6 -7 833 -11 853 -4 9 3 12 571 12 2794 0 2651 -1
2789 -17 2786 -10 -1 -24 1 -30 5 -9 6 -13 2 -13 -10 0 -13 -3 -15 -8 -5 -5 8
-16 10 -27 6 -13 -5 -16 -4 -11 4 4 7 2 12 -3 12 -6 0 -11 -8 -11 -17 0 -15
-2 -16 -10 -3 -5 8 -12 12 -15 8 -4 -3 -19 -2 -35 2 -24 7 -28 6 -22 -8 5 -14
3 -15 -9 -5 -8 6 -18 12 -24 13 -5 1 -9 6 -8 10 2 5 -9 2 -24 -5 -15 -8 -30
-12 -35 -9 -5 3 -17 0 -26 -8 -15 -12 -16 -11 -4 4 10 12 10 18 1 24 -8 4 -9
3 -5 -4 4 -7 2 -12 -3 -12 -19 0 -26 5 -23 15 1 6 -3 3 -10 -5 -14 -16 -35
-18 -84 -6 -19 4 -24 4 -15 -3 10 -6 3 -9 -23 -8 -35 1 -36 2 -19 15 17 14 17
14 0 8 -10 -3 -21 -6 -23 -6 -2 0 -4 -8 -4 -17 0 -13 -2 -15 -8 -5 -5 8 -16
10 -27 6 -13 -5 -16 -4 -11 4 4 7 2 12 -3 12 -6 0 -11 -8 -11 -17 0 -13 -2
-15 -8 -5 -5 7 -17 10 -28 7 -18 -6 -18 -6 1 11 18 15 18 16 2 10 -10 -3 -21
-6 -23 -6 -2 0 -4 -8 -4 -17 0 -13 -2 -15 -8 -5 -5 8 -16 10 -27 6 -13 -5 -16
-4 -10 5 6 10 3 11 -14 2 -19 -11 -25 -8 -22 12 2 13 -9 7 -21 -12z m-88
-1471 c0 -5 -5 -10 -11 -10 -5 0 -7 5 -4 10 3 6 8 10 11 10 2 0 4 -4 4 -10z
m10 -160 c0 -5 -2 -10 -4 -10 -3 0 -8 5 -11 10 -3 6 -1 10 4 10 6 0 11 -4 11
-10z m-10 -800 c0 -5 -5 -10 -11 -10 -5 0 -7 5 -4 10 3 6 8 10 11 10 2 0 4 -4
4 -10z m10 -160 c0 -5 -2 -10 -4 -10 -3 0 -8 5 -11 10 -3 6 -1 10 4 10 6 0 11
-4 11 -10z m-10 -480 c0 -5 -5 -10 -11 -10 -5 0 -7 5 -4 10 3 6 8 10 11 10 2
0 4 -4 4 -10z m10 -160 c0 -5 -2 -10 -4 -10 -3 0 -8 5 -11 10 -3 6 -1 10 4 10
6 0 11 -4 11 -10z m-10 -800 c0 -5 -5 -10 -11 -10 -5 0 -7 5 -4 10 3 6 8 10
11 10 2 0 4 -4 4 -10z m10 -160 c0 -5 -2 -10 -4 -10 -3 0 -8 5 -11 10 -3 6 -1
10 4 10 6 0 11 -4 11 -10z m-10 -800 c0 -5 -5 -10 -11 -10 -5 0 -7 5 -4 10 3
6 8 10 11 10 2 0 4 -4 4 -10z m10 -160 c0 -5 -2 -10 -4 -10 -3 0 -8 5 -11 10
-3 6 -1 10 4 10 6 0 11 -4 11 -10z"/>
<path d="M6900 7168 c-5 -13 -9 -17 -9 -10 -1 15 -52 13 -63 -3 -5 -6 -8 -5
-8 2 0 9 -7 10 -23 4 -13 -5 -30 -5 -38 -1 -8 6 -16 4 -21 -3 -6 -9 -8 -8 -8
3 0 13 -1 13 -10 0 -5 -8 -10 -10 -10 -4 0 12 -60 11 -79 0 -6 -4 -11 -1 -11
6 0 9 -3 9 -10 -2 -9 -13 -11 -13 -20 0 -5 8 -10 10 -10 4 0 -11 -35 -12 -46
-1 -11 10 -24 8 -24 -4 0 -5 5 -7 12 -3 7 4 8 3 4 -4 -5 -9 -13 -9 -28 -1 -15
8 -19 8 -13 0 5 -8 -1 -10 -19 -5 -18 4 -26 2 -26 -7 0 -12 -2 -12 -9 0 -6 9
-10 10 -16 2 -5 -9 -10 -9 -21 0 -9 8 -18 8 -26 2 -7 -6 -30 -10 -50 -9 -21 1
-38 -2 -38 -6 0 -4 -7 -5 -15 -2 -8 4 -22 0 -31 -7 -13 -10 -17 -10 -25 2 -6
10 -9 10 -9 2 0 -7 -5 -13 -11 -13 -5 0 -7 6 -4 13 4 6 1 5 -7 -3 -7 -8 -29
-15 -48 -15 -19 1 -42 -3 -51 -7 -9 -4 -21 -2 -28 5 -10 9 -11 8 -5 -6 5 -13
2 -16 -10 -11 -9 3 -23 1 -30 -5 -10 -9 -16 -9 -21 -1 -4 7 -11 7 -18 2 -7 -5
-23 -8 -37 -8 -14 1 -31 -6 -38 -14 -12 -13 -13 -13 -6 0 7 13 5 13 -8 2 -13
-10 -17 -10 -21 0 -4 9 -6 9 -6 -2 -1 -11 -10 -15 -28 -14 -16 0 -31 -4 -35
-10 -5 -7 -8 -7 -8 2 0 7 -5 10 -10 7 -6 -4 -8 -11 -5 -16 4 -5 -1 -9 -10 -9
-10 0 -13 5 -9 12 4 6 -3 4 -17 -5 -28 -20 -43 -22 -34 -4 4 6 -1 3 -9 -7 -9
-11 -16 -16 -16 -12 0 5 -7 3 -15 -4 -9 -7 -18 -10 -22 -7 -3 4 -15 1 -27 -5
-27 -15 -48 -19 -40 -7 3 5 0 9 -5 9 -6 0 -11 -7 -11 -16 0 -8 -4 -13 -9 -9
-5 3 -13 0 -17 -6 -4 -8 -9 -7 -15 2 -7 11 -9 11 -9 1 0 -7 -4 -10 -10 -7 -5
3 -10 1 -10 -6 0 -8 -4 -8 -15 1 -13 11 -14 10 -9 -3 4 -12 1 -15 -15 -12 -12
2 -21 -1 -21 -8 0 -8 -3 -8 -9 2 -7 10 -11 9 -22 -6 -8 -10 -24 -18 -36 -17
-13 1 -23 -3 -23 -9 0 -6 -3 -7 -7 -4 -3 4 -12 -1 -20 -11 -9 -10 -11 -11 -7
-2 6 12 5 13 -7 4 -8 -6 -22 -10 -31 -9 -10 2 -16 -2 -15 -8 1 -7 -8 -11 -20
-11 -13 1 -20 -3 -16 -9 4 -6 0 -8 -11 -4 -11 5 -15 3 -10 -5 5 -8 2 -9 -10
-5 -10 4 -15 3 -11 -3 3 -6 -1 -11 -9 -11 -33 -3 -37 -4 -46 -19 -9 -13 -10
-13 -10 0 0 13 -1 13 -10 0 -5 -8 -10 -12 -10 -7 0 4 -9 -2 -20 -13 -12 -12
-25 -18 -30 -15 -5 3 -11 1 -15 -5 -3 -5 -15 -15 -27 -21 -16 -9 -19 -8 -12 3
6 10 5 11 -8 1 -8 -7 -19 -9 -23 -5 -5 4 -5 1 -1 -6 5 -9 1 -15 -13 -19 -12
-3 -18 -10 -14 -17 4 -6 -1 -5 -10 3 -12 9 -17 10 -17 2 0 -7 -5 -9 -10 -6 -6
4 -9 1 -8 -7 2 -7 -3 -12 -9 -10 -7 1 -13 -2 -13 -8 0 -6 -6 -9 -12 -8 -7 2
-12 -2 -11 -9 2 -7 -4 -10 -12 -7 -9 4 -15 0 -15 -7 0 -12 -2 -12 -9 0 -7 11
-10 9 -16 -8 -4 -14 -12 -20 -21 -17 -8 3 -14 1 -14 -4 0 -6 -7 -10 -16 -10
-11 0 -14 -5 -10 -16 5 -13 3 -14 -7 -6 -10 8 -16 6 -25 -9 -7 -10 -19 -19
-27 -19 -8 0 -15 -5 -15 -11 0 -6 -7 -8 -17 -5 -10 4 -14 4 -11 0 10 -9 -18
-35 -34 -32 -7 2 -12 -3 -10 -9 2 -12 -10 -17 -30 -14 -5 0 -8 -5 -8 -13 0 -8
-5 -18 -12 -22 -7 -5 -9 -2 -4 7 4 8 -5 1 -19 -16 -15 -16 -24 -23 -20 -15 4
8 -3 4 -15 -10 -12 -14 -18 -18 -14 -10 4 9 -2 6 -13 -5 -11 -11 -19 -23 -16
-27 2 -4 -4 -5 -13 -1 -12 4 -15 3 -10 -5 6 -11 -5 -17 -27 -13 -4 0 -6 -5 -5
-11 2 -7 -3 -12 -9 -10 -7 1 -13 -5 -13 -13 0 -8 -6 -15 -14 -15 -8 0 -19 -12
-24 -27 -6 -16 -11 -22 -11 -15 -1 7 -6 10 -11 7 -6 -4 -8 -11 -5 -16 4 -5 -1
-9 -10 -9 -9 0 -13 -4 -10 -10 6 -9 -8 -14 -27 -11 -5 0 -8 -6 -8 -14 0 -8 -5
-15 -10 -15 -6 0 -9 -6 -8 -12 2 -8 -5 -12 -16 -10 -18 3 -18 2 -5 -14 8 -11
9 -15 2 -10 -7 4 -23 0 -35 -10 -18 -13 -19 -15 -4 -10 10 3 -4 -14 -30 -40
-27 -25 -49 -49 -49 -52 0 -13 -43 -50 -51 -44 -4 4 -4 2 0 -5 3 -6 -2 -18
-12 -25 -11 -7 -22 -23 -26 -35 -4 -13 -14 -23 -22 -23 -8 0 -14 -5 -14 -11 0
-5 4 -8 8 -5 5 3 9 -1 9 -9 0 -8 -4 -12 -8 -10 -15 10 -37 -7 -34 -25 3 -14
-1 -17 -12 -13 -11 4 -14 2 -9 -5 4 -7 2 -12 -4 -12 -7 0 -10 -7 -6 -15 3 -8
-4 -21 -15 -29 -11 -8 -22 -21 -23 -30 -1 -8 -6 -19 -11 -23 -4 -5 -4 -1 0 7
8 13 6 13 -7 2 -9 -8 -15 -19 -12 -27 3 -7 0 -16 -7 -21 -8 -5 -10 -3 -4 6 5
9 4 11 -4 6 -9 -6 -9 -11 1 -24 11 -13 10 -15 -8 -10 -13 3 -21 0 -21 -8 0 -7
5 -11 10 -7 5 3 1 -6 -8 -21 -10 -14 -21 -26 -25 -26 -5 0 -7 -11 -5 -25 2
-22 0 -23 -13 -13 -11 9 -14 9 -9 1 4 -6 2 -15 -4 -18 -5 -4 -8 -13 -5 -21 3
-9 -1 -14 -12 -14 -15 0 -15 -2 -2 -10 13 -8 12 -10 -4 -10 -15 0 -16 -3 -7
-14 9 -11 9 -16 0 -22 -8 -5 -9 -3 -4 6 6 9 4 11 -4 5 -7 -4 -11 -16 -8 -26 3
-10 0 -17 -7 -16 -6 1 -10 -6 -10 -15 1 -10 -2 -18 -6 -18 -4 0 -7 -9 -6 -20
0 -11 -3 -20 -9 -20 -14 -2 -27 -28 -20 -40 3 -6 1 -10 -4 -10 -6 0 -10 -6 -8
-12 1 -7 -3 -12 -9 -11 -8 1 -10 -6 -6 -19 3 -13 1 -19 -5 -15 -5 3 -10 0 -10
-8 0 -8 4 -12 9 -9 4 3 5 -2 2 -10 -3 -9 -11 -16 -16 -16 -6 0 -4 -7 3 -17 13
-15 12 -15 -11 -3 -19 9 -22 10 -13 0 8 -8 9 -20 2 -37 -5 -13 -8 -27 -8 -31
2 -16 -14 -52 -23 -52 -6 0 -8 -7 -4 -15 3 -8 0 -15 -7 -15 -8 0 -6 -4 3 -10
11 -7 11 -10 2 -10 -8 0 -10 -5 -6 -12 5 -8 1 -9 -12 -5 -18 7 -18 6 -1 -7 21
-16 22 -27 3 -20 -11 4 -13 0 -9 -17 5 -16 3 -20 -7 -14 -10 6 -10 4 -3 -10
12 -20 6 -55 -9 -55 -5 0 -6 5 -2 12 5 7 3 8 -5 4 -9 -6 -8 -12 4 -26 14 -16
14 -18 -7 -33 -18 -13 -19 -15 -4 -10 13 4 17 3 12 -5 -4 -7 -15 -12 -24 -13
-14 0 -13 -2 3 -9 11 -5 15 -9 9 -9 -6 -1 -10 -13 -8 -28 1 -15 -2 -33 -8 -40
-6 -7 -8 -19 -5 -27 4 -9 -1 -17 -11 -19 -14 -4 -14 -5 2 -6 20 -1 20 -1 0
-17 -16 -13 -16 -15 -2 -10 15 4 16 2 6 -14 -7 -10 -17 -16 -23 -14 -5 3 -1
-2 9 -10 12 -10 15 -16 7 -16 -8 0 -11 -6 -7 -15 3 -8 0 -15 -7 -15 -8 0 -6
-4 3 -10 12 -8 12 -10 1 -10 -11 0 -11 -3 0 -16 12 -15 11 -16 -11 -10 l-25 7
25 -15 c22 -14 23 -15 5 -16 -14 0 -16 -3 -7 -9 12 -7 10 -56 -3 -69 -3 -4 -3
8 0 27 3 20 2 30 -4 27 -15 -9 -8 -55 9 -66 13 -8 12 -10 -2 -10 -21 0 -24
-16 -5 -23 9 -4 8 -6 -2 -6 -11 -1 -11 -4 0 -18 11 -13 11 -15 1 -9 -10 6 -13
-1 -10 -30 2 -26 7 -38 16 -36 8 1 11 -2 7 -8 -3 -6 -10 -8 -15 -5 -6 3 -8
-90 -7 -224 1 -126 5 -227 10 -224 4 2 5 16 3 30 -3 14 -2 22 1 19 12 -12 14
-54 3 -61 -5 -3 -10 -12 -10 -18 0 -7 4 -6 11 3 9 12 10 10 6 -8 -4 -19 -2
-22 11 -18 13 5 12 3 -2 -9 -14 -11 -16 -15 -5 -15 12 0 12 -2 -1 -10 -9 -6
-11 -10 -3 -10 7 0 10 -6 7 -14 -3 -8 0 -25 7 -38 11 -21 11 -22 -4 -9 -22 17
-22 8 -1 -14 14 -13 14 -18 2 -32 -9 -12 -9 -15 0 -9 7 4 12 1 12 -9 0 -9 -4
-13 -10 -10 -16 10 -11 -1 7 -16 14 -12 16 -12 8 0 -5 10 -4 12 4 7 9 -6 9
-11 0 -22 -8 -10 -8 -14 0 -14 6 0 11 -5 11 -11 0 -5 -6 -7 -12 -3 -10 6 -10
4 0 -7 15 -17 16 -43 0 -33 -7 4 -8 3 -4 -4 4 -7 15 -12 24 -13 14 0 13 -2 -3
-9 -11 -5 -15 -9 -8 -9 7 -1 10 -8 7 -16 -4 -8 -1 -15 5 -15 6 0 11 5 11 12 0
6 3 8 7 4 5 -4 -1 -14 -11 -22 -17 -12 -18 -14 -3 -14 9 0 17 -5 17 -11 0 -5
-4 -7 -10 -4 -6 3 -7 -1 -4 -9 3 -9 10 -16 15 -16 5 0 9 -5 9 -11 0 -5 -4 -8
-9 -4 -6 3 -6 -6 -1 -24 4 -16 5 -33 2 -37 -4 -5 0 -3 10 4 14 11 16 9 14 -18
-1 -17 2 -34 6 -36 5 -3 3 -13 -4 -22 -10 -12 -10 -14 0 -8 7 4 12 2 12 -4 0
-6 5 -8 12 -4 6 4 8 3 4 -4 -3 -6 -2 -13 4 -17 6 -4 7 -13 2 -23 -9 -18 10
-67 21 -55 7 6 11 -20 8 -46 -2 -8 2 -10 11 -5 10 6 10 4 -1 -9 -9 -11 -10
-17 -2 -17 6 0 10 -3 10 -7 -3 -20 2 -34 11 -28 6 3 10 1 10 -4 0 -6 -5 -11
-10 -11 -6 0 -5 -6 2 -14 7 -8 17 -11 22 -8 5 3 5 -1 0 -9 -4 -8 -9 -20 -10
-27 -2 -11 1 -11 14 0 9 7 14 8 9 3 -4 -4 1 -18 10 -29 17 -20 17 -20 0 -7
-15 12 -17 12 -11 -3 3 -9 11 -16 16 -16 6 0 5 -7 -2 -15 -11 -13 -10 -14 4
-9 11 4 16 1 16 -10 0 -9 6 -16 13 -16 9 0 8 -3 -2 -9 -11 -7 -9 -10 8 -16 11
-3 21 -10 21 -15 0 -5 -8 -7 -17 -4 -17 5 -17 5 0 -6 9 -6 17 -18 17 -25 0 -8
5 -15 10 -15 6 0 10 -7 10 -15 0 -8 4 -15 10 -15 5 0 7 -7 4 -15 -4 -10 0 -15
12 -15 16 0 17 -2 4 -10 -13 -8 -12 -10 4 -10 12 0 16 -5 12 -15 -3 -8 -1 -15
5 -15 5 0 14 -11 21 -25 6 -13 15 -22 19 -19 5 3 6 -2 3 -10 -4 -9 1 -18 10
-22 9 -3 16 -10 16 -16 0 -5 -5 -6 -12 -2 -7 4 -8 3 -4 -4 4 -7 13 -12 21 -12
8 0 17 -5 21 -12 4 -6 3 -8 -4 -5 -6 5 -8 -1 -5 -14 3 -11 13 -23 22 -27 27
-10 43 -30 28 -35 -7 -3 -4 -6 7 -6 12 -1 16 -6 12 -17 -3 -8 -2 -13 2 -11 4
3 18 -7 32 -21 18 -18 19 -22 5 -13 -11 8 -8 2 7 -12 16 -14 28 -31 28 -37 0
-6 5 -8 10 -5 9 6 14 -8 11 -27 0 -5 5 -7 12 -5 6 1 11 -4 10 -10 -3 -12 10
-18 31 -14 5 1 3 -5 -4 -14 -7 -9 -9 -15 -4 -14 25 4 36 -2 31 -20 -3 -13 -1
-18 8 -14 8 2 21 -7 30 -21 10 -14 24 -26 31 -26 8 0 14 -7 14 -15 0 -8 5 -15
10 -15 6 0 20 -11 32 -25 11 -13 25 -22 29 -19 5 3 6 -2 3 -10 -4 -10 -1 -16
8 -16 7 0 19 -9 26 -20 7 -11 19 -20 26 -20 8 0 18 -10 21 -21 5 -16 9 -18 15
-9 6 9 10 7 15 -8 3 -12 9 -21 13 -21 24 4 34 -3 28 -18 -4 -10 -4 -14 0 -10
4 4 16 -1 27 -10 11 -10 17 -12 13 -5 -4 6 -5 12 -1 12 3 0 10 -11 15 -25 5
-14 13 -25 17 -24 22 4 33 -2 27 -13 -5 -9 -2 -8 9 1 15 12 17 12 11 -4 -5
-13 -4 -16 4 -11 7 4 12 2 12 -4 0 -6 4 -9 9 -5 5 3 16 -4 24 -15 8 -12 19
-20 23 -18 13 4 65 -38 56 -46 -3 -4 1 -4 11 0 11 4 19 0 23 -10 3 -9 17 -16
30 -16 13 0 24 -4 24 -10 0 -5 7 -10 15 -10 9 0 18 -6 21 -14 3 -8 12 -12 19
-10 7 3 16 0 21 -7 5 -8 3 -10 -6 -4 -8 5 -11 4 -7 -3 4 -5 17 -8 29 -4 13 3
19 1 15 -5 -4 -6 0 -14 9 -17 10 -4 13 -2 8 7 -4 6 3 2 15 -10 24 -25 36 -30
26 -10 -4 6 0 4 9 -7 10 -12 23 -17 36 -13 16 4 23 -1 31 -20 7 -20 13 -23 21
-15 8 8 15 7 25 -6 10 -12 12 -12 8 -2 -6 13 -5 13 7 0 7 -9 23 -15 36 -14 16
1 21 -3 18 -13 -3 -8 -2 -11 3 -8 5 3 12 1 15 -4 3 -5 14 -7 25 -4 11 3 21 -2
24 -11 4 -10 13 -13 23 -9 11 4 15 3 10 -5 -4 -7 1 -10 14 -7 11 2 22 -1 25
-6 4 -5 11 -7 16 -4 5 4 9 -1 9 -9 0 -18 16 -22 22 -5 3 8 9 6 20 -5 12 -12
18 -13 21 -3 4 9 6 9 6 0 1 -7 8 -13 16 -13 8 0 15 -5 15 -12 0 -9 3 -9 12 0
15 15 32 16 23 2 -4 -6 5 -10 19 -10 14 0 26 -4 26 -8 0 -4 11 -9 25 -10 37
-3 49 -6 56 -15 3 -5 20 -9 37 -9 18 -1 32 -5 32 -11 0 -5 8 -3 17 4 14 12 16
12 8 0 -6 -11 -4 -13 9 -8 10 4 15 3 11 -3 -6 -10 -3 -11 45 -14 14 0 31 -5
39 -10 10 -6 12 -6 7 2 -4 7 -3 12 2 12 6 0 13 -7 16 -16 3 -8 10 -13 15 -9 5
3 12 1 16 -4 4 -7 15 -7 31 -1 14 6 23 6 20 1 -3 -5 1 -12 10 -15 8 -3 12 -2
9 4 -8 13 38 8 48 -5 4 -6 11 -4 17 5 9 13 10 13 11 0 1 -8 1 -19 0 -23 -1 -5
3 -6 9 -2 6 3 7 12 3 18 -4 7 1 5 11 -3 21 -16 64 -21 72 -8 3 5 12 4 20 -3 8
-6 14 -9 14 -5 0 4 15 -1 33 -10 30 -16 31 -16 18 0 -12 15 -12 16 5 10 10 -4
24 -10 29 -13 17 -9 35 -10 29 0 -3 5 0 9 5 9 6 0 11 -8 12 -17 0 -10 3 -13 5
-6 4 9 13 9 30 3 18 -7 23 -7 18 2 -5 7 -3 8 7 3 7 -5 28 -8 45 -7 22 2 36 -3
44 -15 11 -17 11 -17 6 -1 -3 10 -1 18 4 18 6 0 10 -6 10 -12 0 -9 2 -10 8 -2
8 13 67 13 79 0 4 -5 3 -6 -4 -2 -7 4 -13 3 -13 -1 0 -16 154 -10 166 6 9 11
12 12 19 1 6 -9 4 -11 -6 -5 -8 5 -11 4 -6 -1 12 -13 128 -13 120 0 -4 6 2 4
12 -4 17 -14 18 -13 12 4 -7 17 -5 17 9 5 17 -14 126 -21 118 -8 -2 4 5 9 17
12 15 4 18 2 10 -7 -7 -9 7 -12 64 -11 40 0 71 3 68 8 -2 4 -10 4 -16 1 -7 -4
-9 -3 -5 1 5 5 24 9 43 11 32 2 34 0 23 -14 -11 -15 -11 -15 3 -5 9 7 20 9 24
5 5 -4 5 -1 1 6 -9 16 25 13 36 -3 5 -6 8 -6 8 1 0 7 29 12 78 13 42 1 79 6
80 12 2 5 8 9 13 9 6 0 7 -4 4 -10 -3 -5 -2 -10 4 -10 5 0 13 5 16 10 3 6 12
10 18 10 7 0 6 -4 -3 -10 -8 -5 -11 -10 -6 -10 5 0 18 8 29 17 11 10 17 13 14
7 -4 -7 0 -14 8 -17 8 -4 12 -1 9 6 -3 8 10 12 43 11 27 0 56 4 67 9 10 5 16
5 13 0 -3 -5 11 -8 31 -8 26 1 38 6 40 18 2 10 8 15 13 11 5 -3 7 -11 3 -17
-3 -7 2 -3 10 7 10 12 16 15 16 7 0 -9 6 -11 18 -6 30 12 47 13 60 2 7 -6 12
-6 11 -1 -4 21 2 28 11 14 7 -11 10 -11 10 -2 0 10 5 10 20 2 16 -9 22 -8 26
5 3 8 10 15 16 15 5 0 6 -5 2 -11 -3 -6 4 -5 17 3 13 8 35 14 49 12 14 -1 31
3 38 8 8 7 16 7 26 -1 10 -9 17 -7 27 6 13 16 12 17 -3 4 -12 -9 -18 -10 -18
-2 0 6 3 11 8 12 4 0 17 2 30 3 13 2 25 -1 28 -6 3 -4 11 -8 17 -8 7 0 6 4 -3
10 -12 8 -9 10 13 10 15 0 27 6 27 13 0 8 4 7 10 -3 5 -8 10 -10 10 -4 0 6 6
11 13 11 47 3 89 14 103 27 19 19 28 21 18 4 -6 -11 -4 -11 7 0 7 6 19 12 27
12 7 0 10 -6 7 -12 -4 -7 3 -2 14 11 13 14 21 18 21 10 0 -11 2 -11 10 1 5 8
10 11 10 6 0 -5 10 -1 22 10 21 19 21 19 14 -1 -7 -18 -5 -18 14 3 12 12 25
20 31 17 5 -4 9 0 9 7 0 9 3 9 10 -2 8 -12 11 -11 16 8 5 18 9 20 15 10 7 -10
9 -11 9 0 0 7 4 11 8 8 4 -2 8 6 8 19 0 13 -4 21 -8 19 -4 -3 -8 4 -8 15 0 12
-5 21 -11 21 -6 0 -7 5 -2 13 14 23 11 38 -10 47 -17 7 -18 9 -4 9 9 1 17 5
17 11 0 5 -3 9 -7 9 -28 -4 -38 28 -20 58 4 7 2 15 -4 19 -8 4 -9 3 -5 -4 4
-7 2 -12 -3 -12 -6 0 -11 7 -11 16 0 9 -5 12 -12 8 -7 -4 -8 -3 -4 5 4 6 12 9
17 6 5 -3 6 1 3 9 -3 9 -11 13 -16 10 -7 -4 -6 0 0 12 11 21 -8 60 -23 46 -5
-4 -5 -1 -1 6 4 7 1 26 -8 42 -8 17 -10 28 -5 25 5 -4 9 -1 9 4 0 6 -6 11 -12
11 -9 0 -8 4 2 10 10 6 11 10 3 10 -7 0 -13 9 -13 21 0 13 -4 18 -12 13 -8 -5
-7 0 2 11 9 11 10 16 3 11 -9 -5 -13 0 -13 18 0 13 -6 27 -12 29 -10 4 -10 6
0 6 10 1 10 5 -2 17 -9 8 -14 19 -11 23 4 7 -16 8 -47 2 -4 0 -4 -9 -1 -19 6
-15 5 -15 -10 -3 -13 10 -17 10 -17 1 0 -7 -7 -10 -15 -6 -8 3 -19 -2 -24 -12
-7 -11 -10 -12 -11 -4 0 10 -4 9 -16 -3 -13 -13 -19 -13 -32 -3 -13 11 -14 11
-7 -1 6 -11 4 -13 -8 -8 -9 3 -19 1 -23 -5 -4 -7 -3 -8 4 -4 7 4 12 2 12 -4 0
-6 -10 -8 -24 -4 -13 3 -27 1 -31 -6 -5 -8 -10 -8 -20 0 -10 8 -15 8 -21 -1
-5 -8 -3 -9 6 -4 9 6 11 4 5 -4 -4 -7 -16 -11 -26 -8 -12 3 -17 1 -12 -6 4 -6
0 -8 -10 -4 -9 3 -19 2 -23 -4 -4 -6 -11 -6 -20 2 -12 10 -18 6 -16 -12 1 -3
-5 -6 -13 -6 -8 0 -11 5 -8 11 4 6 0 5 -9 -1 -8 -7 -28 -14 -44 -15 -16 -1
-32 -7 -36 -13 -5 -6 -8 -4 -8 5 0 11 -2 12 -8 3 -7 -11 -39 -20 -107 -28 -44
-6 -59 -10 -72 -18 -7 -4 -17 0 -23 10 -11 17 -11 17 -6 0 5 -15 2 -17 -15
-12 -12 4 -19 3 -16 -1 3 -5 -29 -10 -71 -11 -97 -4 -102 -4 -102 -16 0 -5 -7
-4 -15 3 -11 9 -15 9 -15 1 0 -7 -4 -10 -9 -7 -5 4 -12 0 -14 -6 -4 -10 -6 -9
-6 1 -1 11 -4 11 -16 1 -12 -10 -15 -9 -16 6 0 11 -3 14 -6 6 -2 -6 -9 -10
-14 -6 -5 3 -9 0 -9 -7 0 -8 -3 -9 -13 0 -8 6 -17 8 -20 4 -12 -11 -92 -11
-99 1 -5 7 -8 3 -8 -8 0 -19 -1 -19 -13 -2 -12 17 -15 17 -30 2 -10 -11 -18
-12 -22 -6 -5 8 -15 6 -32 -5 -14 -10 -22 -12 -19 -6 4 6 3 11 -3 11 -5 0 -13
-5 -16 -11 -5 -7 -15 -4 -32 6 -14 10 -22 12 -19 6 4 -6 2 -11 -4 -11 -6 0 -8
-5 -4 -12 5 -7 3 -8 -5 -4 -7 5 -10 14 -8 21 6 14 -23 13 -66 -4 -34 -13 -47
-14 -29 -2 10 6 9 10 -7 14 -12 3 -19 2 -16 -3 3 -4 -2 -10 -10 -14 -10 -3
-15 1 -16 12 0 10 -3 12 -6 5 -3 -9 -10 -10 -21 -4 -9 5 -26 6 -37 4 -22 -5
-25 -5 -75 -1 -19 2 -41 7 -47 11 -7 5 -13 4 -13 -1 0 -10 -30 -9 -47 1 -6 4
-14 1 -16 -5 -4 -10 -6 -9 -6 1 -1 11 -4 11 -18 0 -15 -12 -16 -12 -10 5 6 16
5 17 -8 6 -12 -10 -15 -10 -15 1 0 11 -2 11 -10 -1 -9 -13 -14 -7 -11 12 0 4
-6 5 -14 2 -8 -4 -12 -11 -9 -18 3 -6 0 -4 -8 4 -8 9 -30 15 -58 15 -25 0 -55
5 -66 12 -12 6 -25 9 -28 6 -11 -11 -37 -12 -30 -1 3 5 0 9 -7 7 -29 -3 -40 1
-33 14 5 7 1 7 -10 -2 -13 -11 -19 -12 -25 -3 -4 6 -12 8 -20 2 -17 -10 -43
-2 -35 11 3 5 -3 6 -12 2 -10 -4 -15 -2 -11 4 3 5 0 10 -8 10 -8 0 -11 -5 -8
-11 5 -7 2 -7 -8 0 -8 6 -22 10 -31 9 -11 -2 -18 3 -19 13 0 11 -2 12 -6 5 -6
-17 -28 -16 -42 1 -7 8 -21 12 -33 8 -15 -4 -19 -2 -13 7 6 10 3 10 -16 0 -22
-11 -23 -11 -10 5 12 14 12 16 -4 10 -14 -6 -16 -4 -10 7 8 12 6 12 -8 0 -11
-8 -17 -9 -17 -3 0 6 -6 9 -14 6 -7 -3 -22 3 -31 13 -10 10 -20 17 -22 16 -2
-2 -12 -3 -24 -3 -13 0 -18 4 -13 13 6 9 5 9 -7 0 -12 -10 -17 -8 -27 8 -10
15 -17 17 -31 10 -14 -8 -26 -3 -57 22 -21 17 -33 24 -25 14 12 -15 12 -17 -3
-11 -9 3 -16 10 -16 14 0 6 -23 17 -51 24 -3 0 -13 9 -23 18 -19 20 -31 24
-21 8 3 -5 1 -10 -4 -10 -6 0 -11 7 -11 17 0 9 -3 13 -7 10 -3 -4 -12 1 -20
11 -8 9 -12 11 -8 5 3 -7 1 -13 -4 -13 -6 0 -11 5 -11 10 0 6 -7 10 -15 10 -8
0 -15 5 -15 10 0 6 -7 10 -16 10 -9 0 -14 6 -11 13 4 10 -2 13 -19 9 -14 -2
-24 0 -24 7 0 6 -6 11 -13 11 -8 0 -22 9 -31 19 -10 11 -24 17 -32 14 -8 -3
-14 -2 -13 3 4 22 -2 33 -16 28 -9 -4 -18 2 -24 17 -5 13 -10 18 -10 10 -1
-10 -7 -7 -20 7 -10 12 -24 22 -31 22 -7 0 -10 7 -6 15 3 8 2 14 -2 13 -18 -5
-50 15 -55 32 -4 14 -10 18 -23 13 -14 -5 -16 -3 -10 12 4 11 4 16 0 12 -10
-10 -35 13 -27 26 3 6 1 7 -5 3 -7 -4 -12 -2 -12 4 0 6 -4 8 -10 5 -5 -3 -10
0 -10 8 0 8 -8 21 -17 28 -17 13 -17 12 -4 -6 9 -12 4 -10 -10 5 -14 14 -28
33 -32 43 -4 9 -17 22 -29 27 -13 5 -19 9 -14 9 5 1 0 9 -11 19 -11 9 -22 25
-26 35 -3 9 -14 17 -22 17 -9 0 -14 4 -11 8 3 5 -4 16 -15 26 -12 9 -18 23
-15 31 2 7 -2 16 -10 19 -10 4 -13 2 -8 -7 4 -7 3 -9 -2 -4 -5 5 -10 13 -10
18 -1 5 -2 14 -3 20 0 5 -6 7 -13 3 -8 -5 -9 -2 -5 9 4 12 1 17 -10 17 -13 0
-14 2 -2 17 10 11 10 14 2 9 -8 -4 -13 -2 -13 4 0 6 -4 8 -10 5 -5 -3 -10 1
-10 9 0 32 -19 58 -34 48 -5 -3 -7 7 -4 22 3 14 1 26 -4 26 -5 0 -16 7 -24 15
-12 12 -12 15 -2 15 10 0 10 2 -1 9 -13 8 -13 12 0 28 13 16 12 17 -3 5 -17
-14 -35 -1 -23 18 3 5 1 10 -5 10 -6 0 -8 5 -5 10 3 6 1 10 -6 10 -7 0 -9 8
-6 21 4 16 3 18 -9 8 -12 -9 -14 -6 -14 19 0 17 -6 32 -15 36 -9 3 -12 12 -8
22 5 13 3 15 -8 9 -12 -8 -12 -6 0 8 12 15 9 21 -10 19 -4 -1 -4 8 -1 20 3 14
1 19 -6 14 -8 -5 -10 -2 -6 8 4 10 1 16 -7 16 -12 0 -12 2 -1 9 11 7 10 9 -3
14 -13 6 -14 11 -4 28 9 17 8 20 -2 14 -9 -6 -11 -2 -6 14 5 19 3 20 -11 9
-13 -11 -15 -11 -10 3 4 9 1 22 -5 29 -9 10 -9 11 1 6 16 -10 15 9 -1 23 -17
14 -20 73 -4 84 8 5 5 7 -7 5 -20 -3 -32 27 -15 38 5 3 9 11 9 17 0 8 -3 8 -9
-1 -6 -11 -10 -10 -16 5 -14 34 -12 61 5 55 9 -3 7 1 -4 10 -15 12 -20 27 -19
58 1 28 -2 38 -8 29 -5 -9 -7 -3 -5 18 3 18 7 37 11 43 3 5 -2 10 -12 11 -16
0 -16 1 2 9 14 6 16 9 5 10 -8 2 -19 2 -23 1 -5 -1 -6 3 -2 9 3 6 11 8 16 5 5
-3 6 1 3 9 -3 9 -11 16 -18 17 -6 1 0 5 14 9 23 7 23 8 3 9 -12 1 -24 5 -27
10 -4 5 4 7 16 4 21 -4 22 -3 4 7 -15 10 -16 14 -5 21 10 6 11 9 2 9 -19 0
-16 18 5 23 16 4 16 5 0 6 -21 1 -23 12 -5 30 10 11 9 12 -2 6 -11 -6 -13 -2
-9 19 3 14 2 26 -1 26 -3 0 -4 32 -1 70 3 39 2 77 -3 85 -5 10 -3 15 5 15 9 0
9 3 -2 10 -12 8 -12 10 -1 10 11 0 11 3 1 15 -9 11 -9 15 -1 15 9 0 9 5 1 20
-8 14 -8 20 0 20 7 0 7 7 -1 23 -11 19 -10 20 3 10 12 -11 14 -9 13 7 -1 11
-4 23 -8 26 -11 11 -8 26 3 19 6 -3 10 -2 10 4 0 5 -6 12 -12 14 -10 4 -10 8
2 16 8 5 19 7 25 3 5 -3 4 2 -4 11 -15 19 -26 23 -15 5 5 -7 3 -8 -6 -3 -10 6
-9 11 4 21 11 8 13 14 7 19 -6 3 -11 11 -11 16 0 6 6 7 13 3 9 -6 9 -4 -1 8
-11 14 -10 18 5 27 13 8 14 10 4 11 -12 0 -12 3 -3 12 7 7 12 17 12 22 0 6 -5
4 -10 -4 -5 -8 -10 -10 -10 -5 0 6 8 21 17 34 9 14 12 21 6 18 -6 -4 -14 0
-17 9 -3 8 -2 13 3 9 17 -10 18 20 2 32 -14 10 -12 11 9 7 17 -4 21 -3 12 4
-18 13 -15 24 11 40 14 8 15 11 5 8 -10 -3 -18 -1 -18 4 0 6 5 10 11 10 5 0 7
5 4 10 -4 6 -1 18 6 26 10 13 10 17 -1 24 -12 7 -11 10 5 16 18 7 18 8 -1 15
-17 7 -16 8 6 8 19 1 22 3 11 10 -12 8 -12 12 -2 25 7 8 10 20 6 26 -3 5 -2
10 3 10 6 0 8 10 4 22 -3 14 -2 19 6 14 7 -4 12 -3 12 3 0 5 -6 12 -12 14 -7
3 -4 6 6 6 11 1 16 4 13 8 -4 3 -1 13 6 21 10 13 9 14 -3 7 -12 -6 -12 -5 -3
5 6 7 9 19 6 28 -4 9 -2 13 3 9 6 -3 16 4 24 16 12 20 12 21 -3 9 -14 -12 -15
-10 -4 17 6 16 14 28 17 26 3 -2 7 5 7 16 1 12 -2 17 -10 13 -7 -4 -8 -3 -4 2
5 5 14 9 19 9 6 0 13 6 16 14 3 9 0 11 -8 6 -9 -6 -9 -3 -1 14 7 11 17 21 24
21 7 0 6 4 -3 10 -13 8 -13 10 2 10 12 0 15 5 11 17 -5 12 -3 14 7 8 9 -6 11
-4 6 4 -5 7 0 19 10 27 11 9 12 12 4 8 -13 -7 -13 -6 0 12 8 10 20 22 25 26 6
5 5 8 -2 8 -7 0 -13 5 -13 11 0 5 5 7 10 4 6 -3 10 1 10 10 0 8 7 18 15 21 13
5 13 9 3 23 -7 9 -9 13 -4 9 11 -9 36 14 28 26 -3 5 1 7 10 4 10 -4 14 0 14
16 -1 14 4 20 14 18 8 -2 12 0 8 4 -4 4 -2 14 5 22 10 13 9 15 -3 8 -8 -4 -5
1 7 12 12 11 20 22 17 25 -3 3 4 8 15 12 11 3 21 16 23 28 2 13 9 21 17 19 12
-3 12 0 0 14 -12 16 -12 17 4 11 13 -5 17 -1 17 14 0 13 4 18 12 13 8 -5 9 -2
5 9 -3 9 -1 19 5 23 7 5 8 2 4 -7 -4 -8 0 -5 9 6 9 11 21 19 26 17 6 -1 8 2 4
7 -3 6 5 21 17 33 13 13 22 27 20 31 -1 5 2 5 8 2 7 -4 14 2 17 14 3 11 9 18
14 15 5 -3 9 0 9 6 0 6 4 8 10 5 6 -3 7 1 4 10 -4 9 -3 15 2 14 21 -4 28 2 14
12 -12 9 -11 10 8 6 12 -3 20 -2 18 1 -5 9 20 32 27 26 3 -3 8 4 12 15 3 12
11 19 16 16 5 -4 9 -1 9 5 0 6 5 8 12 4 6 -4 8 -3 5 3 -4 6 1 17 10 24 14 12
16 12 8 -1 -8 -13 -7 -13 9 -1 9 8 15 20 12 27 -3 8 0 11 8 8 8 -3 20 3 27 14
8 11 19 21 24 23 6 2 9 7 7 12 -1 4 1 6 5 6 22 -4 33 2 27 14 -5 8 -2 7 9 -2
15 -12 17 -12 11 4 -5 12 -4 16 3 12 6 -4 13 0 17 8 3 8 11 15 18 15 6 0 23
10 37 23 14 12 21 15 16 7 -6 -9 -2 -7 8 3 9 11 17 15 17 11 1 -5 7 2 15 16 8
14 14 19 15 11 0 -12 3 -12 18 1 34 28 75 51 67 37 -3 -8 0 -6 7 3 8 9 26 20
41 23 15 4 27 11 27 15 0 4 7 11 16 14 10 4 13 2 9 -7 -4 -6 0 -4 9 7 8 10 19
15 25 11 6 -3 11 -2 11 4 0 5 11 8 25 6 20 -2 23 0 14 11 -12 15 -11 16 43 17
23 1 25 3 15 16 -10 12 -9 13 2 7 8 -5 17 -3 22 5 7 12 9 12 9 0 0 -9 4 -10
13 -4 6 6 20 9 30 8 15 -3 16 -1 5 13 -10 13 -10 14 0 8 7 -4 20 -2 29 6 14
11 16 11 8 -2 -5 -9 1 -7 15 5 13 11 20 14 16 8 -11 -19 5 -16 21 5 8 9 12 11
8 5 -3 -7 -1 -13 4 -13 6 0 11 5 11 11 0 6 9 9 20 6 11 -3 20 -1 20 5 0 5 5 6
10 3 6 -3 13 0 15 7 3 8 18 13 35 12 17 -1 33 2 36 7 3 5 10 9 15 9 6 0 7 -5
4 -10 -4 -6 5 -5 19 2 14 6 26 16 26 21 0 5 8 3 17 -4 14 -12 16 -12 8 0 -6
11 -3 13 13 9 12 -3 23 -1 26 6 3 6 5 5 5 -3 1 -11 5 -10 16 5 9 12 14 14 15
6 0 -7 5 -10 10 -7 6 4 8 12 4 18 -3 7 2 3 10 -7 13 -16 16 -17 16 -4 0 12 8
14 36 11 27 -3 34 -1 28 9 -4 7 -4 10 1 6 4 -4 17 -3 28 3 14 8 18 8 13 0 -4
-6 -2 -11 3 -11 6 0 11 5 11 11 0 5 5 7 10 4 6 -4 18 -1 27 7 12 9 15 9 9 1
-4 -7 -3 -13 3 -13 5 0 13 5 17 11 4 8 9 7 15 -2 5 -8 9 -9 9 -4 0 6 14 11 30
11 17 1 30 -3 30 -9 0 -6 6 -2 14 8 13 18 13 18 24 -1 10 -17 11 -18 12 -1 0
15 3 16 23 6 21 -12 21 -11 7 7 -8 10 -10 16 -6 12 5 -4 15 -3 23 4 11 8 12 7
8 -5 -4 -8 -1 -18 6 -23 7 -4 10 -3 6 2 -3 5 5 14 18 20 20 10 22 9 17 -5 -5
-13 -3 -14 10 -4 8 7 18 10 21 6 4 -3 7 0 7 8 1 10 5 8 15 -5 9 -12 15 -15 15
-7 0 11 3 11 17 0 9 -8 14 -9 10 -3 -4 7 2 12 16 13 12 0 37 2 55 4 17 2 32
-1 32 -6 0 -4 5 -5 12 -1 16 10 108 11 108 0 0 -5 7 -3 15 4 12 10 15 10 15
-1 0 -11 2 -11 10 1 9 13 11 13 20 0 5 -8 10 -10 10 -5 0 15 46 11 66 -6 10
-8 15 -9 11 -2 -5 8 8 11 47 11 30 -1 53 -5 50 -10 -3 -4 0 -8 5 -8 6 0 11 6
11 13 0 8 4 7 10 -3 8 -13 10 -13 10 -1 0 11 4 10 16 -5 8 -10 13 -14 10 -7
-4 6 -2 14 4 18 5 3 10 2 10 -3 0 -6 7 -12 14 -15 11 -4 13 -1 10 11 -5 15 -4
15 9 0 16 -20 32 -25 21 -7 -4 8 -1 8 12 1 11 -5 36 -8 57 -8 20 1 37 -3 37
-9 0 -5 5 -3 10 5 5 8 10 10 10 3 0 -6 13 -10 30 -9 25 2 27 0 17 -13 -9 -12
-6 -12 15 2 26 16 28 16 37 -1 7 -10 11 -12 11 -4 0 8 5 10 13 5 6 -4 26 -9
42 -10 53 -5 55 -6 55 -16 0 -5 7 -4 15 3 9 7 18 10 22 6 3 -3 0 -6 -8 -7 -8
0 -4 -4 9 -9 12 -5 29 -7 37 -4 9 4 15 0 15 -7 0 -9 3 -10 8 -4 10 14 35 18
26 4 -5 -8 1 -10 19 -7 19 4 24 1 20 -10 -5 -12 -2 -12 15 -3 16 8 22 9 22 1
0 -6 8 -10 18 -8 9 2 25 -6 35 -17 10 -11 16 -15 13 -8 -4 6 -2 14 4 18 5 3
10 1 10 -4 0 -6 9 -11 19 -11 11 0 23 -5 26 -10 5 -8 12 -7 23 2 12 10 14 10
8 1 -4 -8 -1 -13 8 -13 9 0 16 -5 16 -11 0 -8 5 -8 15 1 12 10 15 10 15 0 0
-7 7 -10 15 -7 8 4 17 1 21 -5 5 -7 2 -8 -6 -3 -9 5 -11 4 -6 -4 6 -9 11 -9
24 1 12 10 14 10 8 1 -5 -9 2 -13 23 -13 21 0 31 -5 31 -15 0 -8 5 -15 11 -15
5 0 7 4 4 10 -3 6 1 7 9 4 9 -3 16 -10 16 -14 0 -5 6 -7 13 -6 25 4 39 19 34
38 -4 13 1 22 16 28 12 5 16 9 8 9 -10 1 -11 4 -2 14 6 8 8 17 4 20 -3 4 -1 7
6 7 9 0 9 5 1 20 -8 16 -8 20 2 18 7 -2 12 4 10 14 -2 12 2 16 11 12 8 -3 14
2 14 10 0 8 -5 12 -11 9 -6 -4 -3 2 6 13 13 14 14 23 6 38 -7 12 -7 16 0 12 5
-3 15 1 21 8 9 10 9 16 1 21 -8 5 -6 11 6 19 13 10 14 15 5 21 -9 5 -5 12 14
25 22 14 24 18 10 24 -15 5 -15 8 -1 27 8 12 12 27 10 34 -3 7 0 16 7 21 8 5
10 3 4 -6 -5 -8 -4 -11 3 -7 5 4 8 17 5 28 -4 14 0 25 11 31 9 5 16 14 16 21
0 8 -3 8 -9 -1 -7 -11 -9 -11 -14 2 -4 9 -3 15 1 15 20 -3 27 3 29 28 0 14 -5
33 -13 40 -8 8 -11 19 -8 25 5 7 2 8 -5 4 -13 -9 -72 12 -83 28 -5 7 -8 6 -8
-3 0 -11 -3 -11 -15 -1 -8 6 -20 8 -26 4 -7 -4 -9 -3 -6 3 4 6 0 14 -9 17 -10
4 -13 2 -8 -7 6 -9 5 -9 -8 0 -8 7 -18 10 -21 6 -4 -3 -7 -2 -7 4 0 6 -11 9
-25 8 -14 -2 -28 2 -32 7 -3 7 -1 8 5 4 7 -4 12 -2 12 4 0 6 -10 8 -26 4 -21
-5 -25 -4 -19 6 5 9 4 11 -4 6 -6 -4 -19 -2 -27 5 -12 10 -13 9 -8 -6 6 -15 4
-15 -14 -4 -11 7 -19 16 -17 19 2 4 -2 7 -10 7 -8 0 -11 -5 -8 -11 4 -6 -1 -5
-10 3 -9 7 -28 11 -42 9 -13 -3 -22 -1 -19 3 3 5 -3 9 -13 9 -11 0 -24 5 -31
12 -9 9 -12 8 -12 -8 -1 -17 -2 -17 -11 -2 -5 10 -16 15 -25 11 -9 -3 -20 0
-25 8 -5 9 -9 9 -9 2 0 -6 -8 -10 -17 -8 -10 1 -17 7 -16 13 1 5 -7 7 -19 4
-16 -4 -19 -2 -13 8 6 10 4 11 -6 4 -19 -12 -39 -14 -39 -4 0 5 -12 7 -26 6
-14 -2 -43 0 -65 4 -23 4 -42 3 -50 -4 -9 -8 -10 -8 -5 1 4 7 -3 17 -15 24
-19 10 -21 9 -15 -6 5 -15 4 -16 -8 -6 -8 7 -19 10 -25 7 -5 -3 -12 0 -14 6
-4 10 -8 10 -15 -1 -6 -8 -12 -9 -16 -3 -3 6 -16 8 -28 4 -16 -4 -19 -2 -13 8
5 9 4 11 -4 6 -29 -18 -60 -16 -66 5 l-7 21 -14 -21 c-12 -17 -19 -19 -42 -10
-14 6 -30 16 -34 22 -6 9 -8 9 -8 0 0 -7 -5 -13 -11 -13 -5 0 -7 6 -3 13 5 7
1 7 -10 -2 -15 -13 -19 -13 -27 0 -5 8 -9 9 -9 4 0 -6 -9 -11 -20 -12 -13 -1
-18 2 -13 10 4 7 0 6 -10 -2 -13 -10 -17 -10 -17 -1 0 9 -4 9 -17 -1 -15 -12
-16 -12 -8 1 8 13 7 13 -8 1 -9 -7 -17 -9 -17 -4 0 5 -11 9 -25 9 -14 0 -25
-5 -25 -10 0 -6 -4 -5 -9 3 -5 8 -14 10 -22 5 -18 -11 -49 -11 -71 -1 -12 5
-18 3 -18 -5 0 -10 -2 -10 -8 -1 -4 6 -20 10 -35 9 -21 -3 -27 0 -23 10 3 8 3
14 0 14 -2 0 -9 -10 -14 -22z m-3493 -3283 c0 -8 -4 -12 -9 -9 -5 3 -6 10 -3
15 9 13 12 11 12 -6z m4027 -2033 c3 -5 -1 -9 -9 -9 -8 0 -12 4 -9 9 3 4 7 8
9 8 2 0 6 -4 9 -8z m-544 -32 c0 -5 -5 -10 -11 -10 -5 0 -7 5 -4 10 3 6 8 10
11 10 2 0 4 -4 4 -10z m-356 -618 c3 -5 -1 -9 -9 -9 -8 0 -12 4 -9 9 3 4 7 8
9 8 2 0 6 -4 9 -8z m46 2 c0 -8 -19 -13 -24 -6 -3 5 1 9 9 9 8 0 15 -2 15 -3z
m94 -2 c3 -5 -1 -9 -9 -9 -8 0 -12 4 -9 9 3 4 7 8 9 8 2 0 6 -4 9 -8z m180 0
c3 -5 -1 -9 -9 -9 -8 0 -12 4 -9 9 3 4 7 8 9 8 2 0 6 -4 9 -8z"/>
<path d="M7225 6161 c6 -11 4 -13 -9 -8 -10 4 -15 3 -11 -3 3 -6 1 -10 -4 -10
-6 0 -11 5 -11 10 0 6 -5 10 -11 10 -5 0 -8 -4 -5 -9 3 -5 -3 -11 -14 -14 -11
-3 -20 -1 -20 4 0 5 -10 5 -22 0 -13 -5 -33 -7 -46 -5 -17 3 -21 0 -16 -8 5
-9 2 -9 -9 1 -9 7 -17 9 -17 3 0 -5 -9 -8 -21 -5 -12 4 -25 0 -30 -8 -7 -11
-9 -11 -9 -1 0 10 -5 9 -17 -3 -16 -16 -17 -16 -30 1 -12 17 -13 17 -13 0 0
-12 -5 -16 -15 -13 -8 4 -17 2 -20 -3 -4 -6 -14 -6 -27 1 -16 8 -19 8 -13 -1
5 -8 3 -11 -6 -8 -8 3 -20 -2 -27 -11 -10 -12 -12 -13 -6 -1 7 13 5 13 -9 1
-9 -7 -17 -10 -17 -6 0 4 -7 2 -15 -5 -13 -11 -14 -10 -9 6 6 16 3 15 -16 -4
-18 -19 -24 -21 -31 -10 -7 10 -9 8 -9 -6 0 -11 -3 -16 -7 -13 -3 4 -13 1 -21
-6 -13 -10 -15 -9 -8 8 6 16 1 14 -23 -9 -17 -16 -34 -26 -38 -23 -3 4 0 7 7
7 7 0 11 3 8 6 -4 3 -19 -3 -34 -13 -16 -10 -31 -17 -34 -15 -3 1 -12 -4 -20
-11 -29 -24 -44 -31 -35 -16 5 9 1 8 -11 -3 -10 -9 -23 -18 -29 -20 -5 -2 -9
-10 -7 -18 2 -9 0 -11 -5 -5 -11 15 -39 12 -35 -4 1 -7 -2 -10 -8 -6 -5 3 -10
1 -10 -5 0 -6 -4 -8 -10 -5 -5 3 -21 -6 -35 -21 -14 -15 -31 -24 -39 -21 -10
4 -13 1 -10 -7 3 -8 1 -17 -5 -21 -6 -3 -11 0 -11 7 -1 7 -7 2 -15 -12 -8 -14
-15 -20 -15 -15 0 6 -5 2 -11 -8 -6 -9 -15 -14 -21 -11 -7 4 -8 2 -4 -4 4 -7
2 -12 -4 -12 -6 0 -8 -4 -5 -10 4 -6 -1 -7 -11 -3 -12 4 -15 3 -10 -5 4 -7 2
-12 -4 -12 -6 0 -8 -4 -5 -10 4 -6 -1 -7 -11 -3 -12 4 -15 3 -10 -5 4 -7 2
-12 -4 -12 -6 0 -8 -5 -4 -12 5 -8 2 -9 -10 -5 -10 4 -15 3 -11 -3 3 -6 1 -10
-4 -10 -6 0 -11 -6 -11 -14 0 -8 -9 -21 -20 -29 -11 -8 -17 -17 -12 -22 4 -4
-1 -5 -10 -2 -10 3 -20 1 -24 -5 -4 -6 -3 -8 4 -4 6 3 13 2 17 -4 3 -5 -1 -10
-9 -10 -9 0 -15 -6 -13 -12 1 -8 -6 -12 -18 -10 -15 2 -16 0 -7 -6 20 -13 19
-19 -3 -36 -15 -12 -16 -16 -5 -16 9 -1 6 -5 -7 -10 -16 -6 -23 -18 -23 -35 0
-14 -5 -25 -12 -25 -6 0 -8 -3 -5 -7 4 -3 -1 -12 -11 -20 -9 -8 -11 -11 -3 -8
8 5 7 -2 -5 -21 -18 -28 -18 -29 0 -14 18 14 19 14 8 -6 -6 -12 -8 -24 -4 -28
3 -4 -1 -4 -9 -1 -12 5 -16 -1 -17 -26 0 -18 -7 -36 -14 -40 -10 -6 -10 -9 -1
-9 9 0 10 -7 3 -26 -13 -32 -13 -43 0 -24 6 9 10 10 10 3 0 -6 -4 -15 -10 -18
-5 -3 -10 -11 -10 -16 0 -6 4 -8 8 -5 4 2 8 -6 8 -19 0 -13 -4 -21 -8 -19 -5
3 -5 11 -1 17 3 7 -3 3 -15 -7 -23 -20 -29 -32 -12 -21 16 10 22 -19 10 -51
-9 -25 -8 -27 3 -12 12 15 13 13 13 -18 -1 -24 -5 -33 -14 -29 -7 3 -10 0 -7
-5 3 -6 12 -10 20 -10 8 0 17 -5 21 -12 4 -6 3 -8 -3 -5 -15 9 -23 -29 -9 -44
8 -9 8 -10 -4 -4 -12 7 -13 6 -4 -6 6 -8 10 -28 9 -46 -1 -18 2 -30 6 -28 4 3
9 -2 12 -9 3 -8 1 -17 -6 -20 -7 -2 -1 -5 13 -6 14 -1 19 -4 12 -7 -10 -4 -10
-8 0 -21 7 -9 8 -13 2 -9 -6 3 -11 0 -11 -8 0 -8 3 -14 6 -13 3 0 13 0 21 -1
13 -1 13 -2 0 -11 -10 -6 -11 -10 -2 -10 6 0 12 -9 12 -20 0 -11 5 -20 10 -20
6 0 10 -9 10 -21 0 -13 4 -18 13 -13 7 5 7 2 -2 -10 -8 -9 -10 -16 -5 -14 5 1
19 -6 31 -17 17 -14 20 -22 11 -32 -9 -11 -7 -12 8 -7 10 4 16 3 12 -1 -5 -5
1 -14 12 -22 11 -8 20 -20 20 -28 0 -7 10 -17 21 -20 17 -6 19 -9 8 -16 -11
-7 -10 -9 4 -9 11 0 21 -9 24 -19 3 -12 11 -17 19 -14 10 4 12 0 7 -13 -4 -12
-3 -15 5 -10 7 4 12 2 12 -5 0 -7 3 -10 6 -6 8 7 34 -17 34 -32 0 -10 14 -15
33 -12 4 0 7 -6 7 -15 0 -8 5 -12 10 -9 6 3 10 1 10 -5 0 -6 5 -8 10 -5 6 3
10 -1 10 -10 0 -9 5 -13 10 -10 6 3 13 -1 16 -9 3 -9 10 -16 16 -16 5 0 6 6 3
13 -3 6 2 2 11 -10 9 -13 23 -23 30 -23 8 0 14 -4 14 -9 0 -5 10 -11 23 -13
12 -2 21 -9 19 -16 -1 -8 2 -11 8 -7 6 3 17 -1 26 -9 9 -9 20 -14 25 -11 5 4
9 2 9 -2 0 -5 16 -15 35 -22 19 -7 35 -18 35 -24 0 -7 4 -6 10 3 8 13 10 12
10 -2 0 -18 7 -21 43 -21 9 0 17 -4 17 -9 0 -5 4 -7 9 -4 5 3 12 -2 15 -11 6
-15 8 -15 16 -3 7 12 10 11 16 -4 5 -14 9 -15 15 -4 7 10 9 9 9 -4 0 -11 6
-16 19 -13 11 2 22 -3 25 -10 3 -8 13 -11 27 -8 14 4 20 2 16 -4 -4 -6 0 -14
9 -17 10 -4 13 -2 8 7 -6 9 -5 9 8 0 8 -7 18 -10 21 -6 4 3 7 0 7 -8 0 -11 2
-11 10 1 8 13 10 13 10 -2 0 -12 5 -15 17 -11 11 4 14 3 9 -5 -5 -8 -2 -10 9
-6 8 4 27 -2 41 -11 17 -11 24 -12 18 -4 -5 9 2 8 19 -4 15 -9 27 -13 27 -8 0
6 7 8 16 4 8 -3 13 -11 11 -17 -3 -7 9 -11 34 -10 23 0 46 -6 56 -15 10 -9 29
-17 43 -19 14 -1 30 -9 37 -18 10 -14 12 -13 16 3 4 17 5 17 6 0 0 -10 6 -15
11 -12 6 3 10 0 10 -7 0 -9 3 -9 10 2 8 12 10 12 10 -5 0 -15 3 -17 9 -7 6 11
10 10 15 -3 4 -10 12 -15 21 -11 9 3 23 -3 32 -14 9 -10 21 -16 26 -13 5 3 12
2 16 -3 3 -5 17 -15 30 -22 19 -11 22 -11 16 0 -5 7 2 3 14 -9 12 -13 29 -23
37 -23 9 0 22 -7 31 -16 9 -8 22 -13 30 -10 8 3 11 1 8 -4 -3 -6 -1 -10 5 -10
6 0 8 -5 5 -10 -4 -6 -3 -10 2 -9 4 1 17 1 28 0 17 -1 18 -3 5 -11 -12 -8 -11
-10 8 -10 14 0 22 -6 22 -17 0 -9 3 -13 6 -10 4 3 19 -7 34 -23 19 -20 30 -26
33 -18 3 7 6 3 6 -10 1 -13 5 -20 11 -17 6 3 10 0 10 -8 0 -7 10 -23 23 -35
31 -29 49 -52 40 -52 -4 0 2 -7 13 -16 10 -8 13 -13 7 -9 -9 4 -11 1 -7 -9 3
-9 11 -13 16 -9 7 4 9 -4 6 -21 -4 -21 -2 -26 10 -21 12 4 12 3 3 -9 -10 -11
-7 -17 11 -30 12 -9 18 -16 12 -16 -6 0 -11 -7 -11 -15 0 -8 5 -15 11 -15 6 0
4 -5 -4 -10 -11 -7 -12 -10 -2 -10 9 0 11 -7 7 -21 -5 -14 -3 -19 3 -15 6 3
13 2 17 -4 3 -5 1 -10 -4 -10 -6 0 -10 -10 -9 -22 0 -13 0 -27 -2 -33 -5 -20
0 -36 10 -30 7 4 7 -3 0 -20 -6 -15 -10 -38 -10 -51 0 -14 -4 -22 -10 -19 -5
3 -10 1 -10 -4 0 -6 5 -11 12 -11 6 0 4 -6 -7 -13 -12 -10 -14 -16 -7 -21 7
-4 12 -12 12 -17 0 -6 -5 -7 -11 -3 -8 5 -10 -1 -7 -20 5 -26 5 -26 -15 -9
-19 18 -20 17 -8 -5 10 -19 9 -27 -9 -51 -11 -16 -20 -35 -20 -43 0 -17 -54
-68 -72 -68 -11 0 -11 -2 1 -9 9 -6 10 -11 2 -15 -6 -4 -11 -5 -11 -2 0 3 -8
-1 -17 -9 -10 -8 -27 -21 -38 -30 l-20 -15 20 6 20 6 -20 -13 c-20 -13 -25
-15 -46 -18 -5 0 -7 -6 -4 -11 4 -6 -7 -13 -24 -16 -16 -4 -32 -13 -35 -21 -3
-8 -10 -11 -16 -8 -5 3 -10 1 -10 -4 0 -6 -5 -11 -11 -11 -5 0 -7 6 -3 13 3 6
-5 -1 -19 -16 -15 -17 -28 -24 -32 -17 -4 7 -11 5 -21 -4 -8 -9 -22 -12 -31
-9 -12 5 -15 2 -10 -10 6 -15 3 -16 -13 -7 -13 7 -20 7 -20 1 0 -6 -7 -8 -15
-5 -8 4 -15 2 -15 -4 0 -16 -33 -24 -42 -10 -6 11 -8 10 -8 0 0 -7 -4 -10 -10
-7 -5 3 -10 0 -10 -7 0 -9 -3 -9 -10 2 -8 12 -10 12 -10 1 0 -11 -3 -11 -15
-1 -9 7 -15 8 -15 2 0 -5 -18 -9 -41 -7 -29 2 -39 -1 -35 -10 5 -14 -11 -14
-33 -1 -10 6 -12 5 -7 -2 10 -16 -7 -15 -23 1 -9 7 -11 8 -8 1 5 -9 -13 -11
-63 -10 -39 1 -70 -2 -70 -6 0 -5 -8 -5 -17 0 -10 5 -33 7 -51 5 -24 -2 -31 0
-26 10 5 8 2 7 -9 -2 -14 -11 -17 -11 -17 0 0 9 -3 10 -8 4 -11 -15 -46 -12
-54 5 -5 12 -7 11 -7 -3 -1 -10 -6 -15 -11 -12 -6 4 -7 12 -3 18 3 7 -4 3 -16
-8 -12 -11 -22 -15 -21 -10 5 21 -1 32 -15 32 -8 0 -12 -4 -9 -9 3 -4 -12 -5
-33 -1 -21 3 -50 6 -65 6 -15 0 -25 3 -22 8 3 5 -2 9 -11 9 -10 0 -13 -4 -8
-12 4 -7 -5 -5 -20 5 -15 9 -27 14 -27 10 0 -5 -5 -1 -10 7 -5 8 -10 10 -10 4
0 -6 -7 -11 -15 -11 -8 0 -15 5 -15 10 0 5 -7 7 -15 4 -8 -4 -17 -1 -21 5 -5
7 -2 8 6 3 9 -5 11 -4 6 4 -6 9 -11 9 -22 0 -10 -9 -14 -9 -14 0 0 7 -14 11
-36 9 -21 -1 -39 3 -43 11 -5 7 -20 14 -35 14 -14 0 -26 4 -26 9 0 5 -4 6 -10
3 -5 -3 -10 -1 -10 5 0 6 -4 8 -10 5 -5 -3 -10 0 -10 7 0 9 -3 9 -10 -2 -6 -9
-10 -10 -10 -3 0 6 -9 10 -19 8 -15 -3 -18 1 -14 12 5 13 3 14 -16 4 -17 -9
-21 -9 -19 1 2 7 -3 12 -9 11 -7 -2 -13 3 -13 10 0 8 -4 7 -10 -3 -6 -10 -10
-11 -10 -2 0 6 -7 12 -15 12 -8 0 -15 5 -15 10 0 6 -12 10 -26 10 -14 0 -23 4
-19 10 3 5 -3 10 -14 10 -12 0 -21 5 -21 11 0 8 -6 7 -17 -2 -9 -8 -14 -9 -10
-3 4 7 0 15 -9 18 -13 5 -15 2 -11 -14 3 -11 0 -23 -5 -27 -7 -4 -8 -1 -3 7 5
9 4 11 -4 6 -9 -6 -9 -11 -1 -21 10 -12 8 -13 -10 -10 -18 3 -20 2 -10 -10 7
-8 8 -15 3 -15 -5 0 -9 -17 -9 -37 0 -24 -5 -38 -14 -41 -13 -3 -13 -2 0 7 9
7 10 11 3 11 -16 0 -26 -17 -13 -25 6 -4 8 -11 4 -16 -3 -5 -10 -6 -16 -3 -5
4 -5 -4 2 -16 11 -20 10 -22 -3 -17 -11 4 -14 2 -10 -8 3 -8 10 -12 17 -8 6 3
7 2 3 -3 -5 -5 -13 -9 -19 -9 -6 0 -15 -10 -19 -23 -7 -17 -6 -21 4 -16 6 4 3
-3 -8 -16 -13 -15 -15 -21 -5 -16 8 4 7 1 -3 -7 -14 -11 -15 -16 -5 -20 10 -4
10 -6 1 -6 -7 -1 -13 -10 -13 -22 0 -11 -4 -18 -8 -15 -4 2 -8 -4 -8 -14 0
-10 3 -17 6 -15 9 5 29 -22 22 -30 -4 -5 3 -5 16 -2 12 3 22 0 22 -6 0 -6 3
-7 7 -3 4 3 13 -4 21 -16 7 -13 11 -15 8 -6 -5 16 -3 16 17 5 12 -6 25 -16 28
-21 4 -5 12 -5 18 -2 6 4 11 3 11 -3 0 -5 8 -8 18 -6 11 2 25 -5 33 -16 14
-20 35 -27 23 -8 -4 7 1 7 16 -1 12 -6 28 -9 36 -6 8 3 13 0 11 -7 -1 -7 8
-12 21 -11 12 0 22 -3 22 -7 0 -4 14 -5 30 -3 24 4 30 2 30 -13 0 -15 2 -16
10 -3 6 9 10 11 10 3 0 -7 7 -10 15 -7 8 4 15 1 15 -6 0 -10 3 -10 14 -1 11 9
17 9 27 -2 7 -7 23 -11 36 -9 14 3 23 -1 23 -8 0 -10 3 -10 15 0 12 10 15 9
15 -6 0 -13 3 -15 8 -7 5 7 13 9 21 3 8 -4 20 -6 28 -3 7 3 13 0 13 -7 0 -6 5
-8 10 -5 6 4 8 11 5 16 -4 5 -1 9 4 9 11 0 15 -15 11 -35 -1 -5 8 -1 20 10 13
12 20 14 18 6 -2 -7 3 -16 11 -19 8 -3 11 0 7 7 -5 7 -1 9 8 5 9 -3 16 -11 16
-17 0 -6 7 -2 16 9 8 10 13 14 10 8 -7 -14 42 -26 50 -13 3 5 14 4 25 -1 10
-6 19 -8 19 -5 0 3 10 1 22 -6 18 -10 20 -9 15 4 -4 11 -2 14 8 10 8 -3 13 -8
11 -12 -3 -4 4 -8 15 -8 11 -1 17 2 14 8 -4 5 -2 9 3 9 6 0 13 -7 16 -16 5
-12 9 -14 20 -5 7 6 21 9 30 5 12 -5 15 -2 11 12 -4 12 -1 11 6 -3 11 -21 13
-22 26 -5 8 9 12 11 8 5 -7 -15 11 -18 20 -3 4 7 13 7 26 0 14 -8 19 -7 19 2
0 9 3 9 10 -2 9 -13 11 -13 20 0 8 13 10 12 10 -3 0 -10 5 -15 10 -12 6 4 8
11 5 16 -4 5 -1 9 4 9 6 0 11 -5 11 -11 0 -5 5 -7 10 -4 6 3 10 0 10 -7 0 -9
3 -9 10 2 5 8 10 11 10 6 0 -5 10 -1 22 10 19 15 20 16 9 1 -11 -14 -11 -17 2
-17 9 0 19 5 22 10 5 8 11 7 21 -1 12 -10 17 -9 27 1 10 10 9 11 -2 5 -10 -6
-12 -4 -7 4 6 9 13 8 29 -6 11 -10 17 -12 13 -5 -6 9 -1 11 17 8 13 -2 30 0
37 4 8 5 22 4 31 -1 12 -6 20 -5 24 1 4 6 11 8 16 5 5 -4 12 0 15 9 3 8 12 12
20 9 8 -3 11 -9 8 -14 -3 -5 -10 -6 -16 -3 -7 5 -8 2 -4 -5 6 -9 13 -8 27 5
10 9 17 20 14 24 -2 4 2 7 9 7 9 0 12 -7 8 -16 -5 -13 -3 -14 10 -4 8 7 18 10
21 6 4 -3 7 -2 7 4 0 6 14 9 31 7 22 -3 28 0 23 9 -5 7 0 5 11 -3 11 -9 16
-10 11 -2 -5 8 0 12 18 12 13 0 27 6 29 13 4 9 6 8 6 -2 1 -11 4 -11 18 0 14
12 16 12 9 -1 -4 -8 -1 -6 8 4 11 13 30 20 61 21 25 1 49 6 53 10 4 5 1 5 -7
0 -10 -6 -12 -4 -7 4 5 7 14 10 22 7 9 -3 14 1 15 12 0 11 2 12 6 4 4 -10 8
-10 21 0 13 11 15 11 8 -2 -7 -13 -6 -13 6 0 7 8 18 15 23 16 21 1 75 26 75
34 0 5 9 7 20 5 11 -2 18 0 15 6 -4 5 -1 9 5 9 6 0 8 5 4 12 -4 7 -3 8 5 4 6
-4 23 -1 36 8 13 9 31 16 40 16 9 0 13 5 10 10 -6 9 8 14 28 11 5 -1 6 3 3 8
-4 5 7 15 23 22 16 7 27 17 25 21 -3 4 2 8 11 8 9 0 14 4 10 9 -3 6 3 8 15 6
11 -2 22 0 25 6 4 5 0 9 -7 9 -7 1 1 7 17 14 17 7 29 17 28 22 0 5 4 8 9 6 6
-2 8 4 5 13 -4 8 -3 15 2 15 4 0 28 19 52 42 24 22 37 37 29 33 -13 -8 -13 -6
-1 8 7 9 18 14 24 10 6 -3 7 -1 3 5 -4 7 -2 12 4 12 6 0 8 5 5 10 -3 6 1 10 9
10 9 0 15 6 13 13 -1 6 5 11 13 9 10 -1 9 2 -4 13 -20 15 -20 15 0 16 10 1 22
1 25 1 3 -1 6 5 6 13 0 8 -4 12 -9 9 -4 -3 -5 2 -2 10 3 9 10 16 15 16 5 0 9
4 9 9 0 5 15 33 33 62 21 34 28 54 20 56 -7 2 -9 11 -6 19 3 7 8 12 12 9 4 -2
7 11 6 30 -2 27 1 32 14 27 14 -5 14 -4 1 13 -12 15 -12 17 -1 10 11 -6 13 -4
8 7 -3 9 0 21 6 27 6 6 7 11 3 11 -5 0 -3 6 3 14 9 10 9 16 1 21 -8 5 -5 12 7
21 17 14 16 15 -7 8 -22 -5 -23 -4 -9 7 22 19 31 47 17 55 -6 4 -8 3 -5 -3 3
-5 0 -10 -8 -10 -20 0 -19 13 1 21 9 4 14 9 11 13 -4 3 -1 13 6 21 6 9 7 13 2
10 -6 -4 -16 2 -23 13 -7 10 -8 19 -4 19 11 0 9 31 -3 50 -8 13 -6 13 8 1 22
-17 22 -2 0 28 -9 14 -12 21 -6 18 6 -4 13 2 16 14 4 15 2 17 -6 10 -9 -7 -12
0 -13 24 0 22 4 32 10 28 6 -3 5 0 -1 8 -7 7 -13 23 -13 36 0 13 -5 23 -11 23
-5 0 -7 5 -4 10 3 6 0 10 -7 11 -7 0 -4 4 7 9 17 7 17 9 3 9 -12 1 -15 6 -11
18 5 12 3 14 -7 8 -10 -6 -12 -4 -7 8 8 22 -2 49 -16 40 -6 -4 -8 2 -5 15 4
12 1 25 -5 30 -16 10 -37 48 -37 67 0 8 -7 15 -16 15 -8 0 -12 5 -9 10 3 6 0
10 -7 10 -9 0 -9 3 2 10 13 9 13 10 0 11 -8 1 -18 1 -22 0 -5 0 -8 7 -8 18 0
10 -8 25 -17 32 -11 10 -14 10 -9 2 15 -25 -2 -12 -20 15 -17 26 -17 27 2 12
18 -14 18 -14 5 3 -7 9 -18 17 -23 17 -5 0 -19 10 -31 21 -12 12 -15 19 -7 15
8 -4 6 0 -4 8 -11 9 -23 16 -28 16 -4 0 -8 8 -8 18 0 14 -2 15 -10 2 -8 -13
-10 -13 -10 1 0 9 -8 23 -17 30 -16 12 -17 12 -8 -1 6 -9 -3 -1 -18 17 -17 19
-34 30 -43 26 -9 -3 -14 1 -14 12 0 13 -6 16 -21 12 -16 -4 -19 -2 -14 11 3 9
3 13 -1 9 -4 -4 -19 3 -32 15 -14 13 -22 17 -17 9 5 -9 -2 -8 -24 5 -17 10
-31 22 -31 27 0 4 -4 6 -9 2 -5 -3 -16 2 -24 10 -9 8 -20 15 -26 15 -6 0 -11
5 -11 10 0 6 -5 10 -11 10 -5 0 -7 -6 -4 -12 4 -7 -3 -2 -15 12 -12 14 -18 18
-14 10 6 -12 5 -13 -8 -3 -8 7 -18 9 -22 5 -4 -4 -6 0 -4 8 2 8 -4 15 -12 15
-8 0 -21 7 -28 15 -8 8 -11 9 -7 3 3 -7 1 -13 -4 -13 -6 0 -11 5 -11 10 0 6
-7 10 -15 10 -8 0 -15 5 -15 11 0 8 -6 7 -17 -2 -11 -10 -14 -10 -9 -1 6 11
-5 17 -26 13 -5 0 -8 5 -8 13 0 9 -8 12 -25 8 -15 -2 -25 0 -25 7 0 6 -6 11
-14 11 -22 0 -66 26 -58 35 4 5 1 5 -6 1 -7 -4 -10 -12 -7 -17 3 -5 -1 -6 -9
-3 -9 3 -16 10 -16 15 0 5 -9 9 -20 9 -11 0 -20 6 -20 13 0 8 -4 7 -10 -3 -8
-12 -10 -12 -10 5 0 17 -2 17 -10 5 -5 -8 -10 -10 -10 -4 0 6 -10 10 -22 10
-13 -1 -22 4 -21 10 1 7 -6 10 -17 7 -10 -3 -29 2 -42 11 -26 18 -42 21 -32 5
5 -8 1 -8 -14 0 -12 6 -24 15 -27 21 -3 5 -12 7 -20 4 -8 -4 -17 1 -21 9 -3 9
-14 14 -25 12 -10 -2 -19 1 -19 7 0 5 -7 8 -15 5 -8 -4 -17 -1 -21 5 -5 7 -2
8 6 3 8 -5 11 -4 7 3 -4 5 -18 9 -32 7 -14 -1 -25 1 -25 6 0 5 -7 5 -17 2 -11
-4 -14 -3 -9 5 4 7 1 12 -9 12 -9 0 -13 5 -10 10 3 6 2 10 -4 10 -5 0 -12 -6
-14 -12 -4 -10 -6 -10 -6 0 -1 6 -8 12 -16 12 -8 0 -15 5 -15 11 0 5 -4 8 -9
5 -4 -3 -19 3 -31 14 -12 11 -27 17 -31 14 -5 -3 -9 0 -9 5 0 6 -3 10 -7 10
-22 -4 -33 3 -33 19 0 14 -2 15 -10 2 -7 -11 -10 -11 -10 -2 0 7 -4 10 -10 7
-5 -3 -10 1 -10 10 0 10 -5 13 -12 9 -6 -4 -17 1 -25 11 -7 11 -13 16 -13 12
0 -5 -6 -2 -14 5 -8 7 -11 17 -8 22 3 5 1 6 -5 3 -5 -3 -17 3 -26 14 -10 11
-23 17 -29 13 -7 -4 -8 -3 -4 4 4 7 2 12 -4 12 -6 0 -8 5 -4 12 4 6 3 8 -4 4
-6 -3 -13 -2 -17 4 -4 6 -11 8 -16 5 -5 -3 -6 1 -3 9 3 9 1 16 -5 16 -6 0 -19
16 -28 35 -9 19 -24 35 -32 35 -14 0 -14 1 -1 10 10 6 11 10 3 10 -7 0 -13 5
-13 11 0 5 6 7 13 3 7 -4 9 -3 4 2 -5 5 -13 9 -19 9 -17 0 -38 61 -25 74 8 8
7 11 -3 11 -11 0 -11 3 -2 12 10 10 7 15 -10 26 -13 7 -16 11 -7 8 13 -3 15 0
12 15 -3 10 -9 17 -13 14 -5 -3 -12 -1 -15 5 -4 6 -3 10 2 9 20 -3 25 2 13 16
-11 13 -10 15 6 9 18 -5 18 -5 0 10 -12 10 -15 16 -7 16 8 0 11 8 8 20 -3 11
0 20 6 21 7 0 3 4 -8 9 -16 7 -16 9 -4 9 9 1 20 8 23 17 6 15 4 15 -10 3 -16
-13 -16 -12 -5 9 7 13 10 31 7 39 -6 14 -4 14 11 2 11 -9 14 -9 9 -2 -4 7 -2
23 4 35 11 22 10 22 -4 4 -9 -11 -16 -15 -16 -8 0 6 9 17 20 25 11 7 21 24 24
38 2 13 8 23 14 22 5 -1 12 11 16 27 4 22 10 28 21 24 9 -4 15 -3 14 2 -4 25
2 36 17 30 14 -5 15 -4 4 9 -11 13 -10 14 4 9 11 -4 16 -2 14 7 -2 8 3 13 11
11 9 -2 11 3 7 15 -4 9 -4 14 0 10 4 -4 19 3 33 15 22 20 24 20 12 3 -7 -11
-2 -8 12 7 18 19 28 23 36 15 8 -8 9 -5 7 10 -3 12 1 20 9 20 8 0 11 -5 8 -11
-4 -6 1 -5 10 3 9 7 14 18 10 25 -4 6 2 4 12 -4 11 -9 16 -10 11 -2 -4 7 -1
12 9 12 9 0 13 5 9 11 -4 8 0 8 15 0 17 -10 22 -9 27 4 3 8 10 12 15 9 5 -3 9
0 9 6 0 6 5 8 11 4 6 -3 15 0 20 7 6 10 9 11 9 1 0 -10 4 -10 23 0 12 7 25 18
29 23 5 6 8 5 8 -3 0 -10 5 -10 21 -1 16 8 23 8 29 -1 6 -9 13 -7 28 8 14 14
22 17 25 9 3 -9 9 -8 22 3 10 8 16 10 12 4 -3 -6 1 -11 9 -11 8 0 13 6 10 14
-7 17 -1 17 18 -3 9 -8 16 -11 16 -5 0 6 5 11 11 11 5 0 7 -6 4 -12 -4 -7 1
-4 9 6 12 15 16 16 16 5 0 -8 3 -10 8 -4 4 6 23 10 42 10 19 0 38 -4 42 -10 5
-7 8 -7 8 0 0 13 101 6 119 -9 11 -8 13 -8 8 1 -5 7 4 11 28 11 19 0 35 -4 35
-10 0 -5 6 -6 13 -1 20 12 39 12 34 0 -3 -9 8 -12 34 -11 22 0 39 -3 39 -8 0
-4 5 -8 11 -8 5 0 8 4 5 8 -3 5 18 3 46 -4 28 -8 54 -11 58 -9 4 3 10 -1 13
-8 3 -9 16 -12 36 -9 19 2 31 0 31 -7 0 -6 14 -11 30 -11 17 0 30 -5 30 -11 0
-8 5 -8 15 1 10 9 15 9 15 1 0 -6 7 -11 15 -11 8 0 15 -5 15 -11 0 -8 4 -8 14
0 12 10 19 8 35 -8 12 -12 21 -16 21 -10 0 6 7 3 16 -5 8 -9 20 -14 25 -11 5
4 9 0 9 -7 0 -9 3 -9 10 2 8 13 10 13 10 -2 0 -12 5 -15 17 -11 9 4 14 2 10
-3 -3 -6 3 -11 14 -11 13 -1 17 2 12 10 -4 7 0 6 10 -2 15 -12 17 -11 17 10 0
47 3 60 16 55 9 -3 11 1 7 11 -4 11 -2 14 5 9 8 -5 10 -1 5 10 -5 13 -3 15 8
9 11 -6 11 -5 2 5 -9 10 -8 16 3 28 8 8 13 19 11 26 -2 6 3 17 12 24 12 10 13
12 1 6 -13 -7 -13 -5 -2 9 8 9 11 20 8 26 -3 5 1 11 9 15 8 3 15 13 15 21 0
10 5 13 12 9 7 -5 8 -3 2 7 -11 19 -14 40 -4 34 7 -4 12 8 20 43 1 4 9 15 18
25 15 17 15 17 -1 11 -11 -4 -19 0 -23 11 -4 9 -13 14 -21 11 -8 -3 -11 -1 -8
4 4 6 -5 10 -20 10 -14 0 -24 4 -21 8 2 4 -11 12 -29 18 -19 6 -32 7 -29 2 3
-4 0 -8 -5 -8 -6 0 -11 7 -11 16 0 13 -3 14 -15 4 -12 -10 -16 -9 -21 5 -4 10
-14 15 -25 12 -11 -3 -19 0 -19 6 0 7 -13 13 -28 14 -42 3 -56 7 -64 18 -5 6
-8 4 -9 -5 0 -10 -3 -8 -9 5 -8 18 -9 18 -9 2 -1 -10 -6 -15 -11 -12 -6 4 -8
10 -5 15 3 5 0 12 -6 16 -7 4 -9 3 -6 -3 4 -6 -6 -10 -23 -11 -17 0 -30 3 -30
8 0 4 -8 7 -17 5 -10 -1 -26 5 -36 13 -16 15 -17 14 -11 -4 7 -16 5 -17 -8 -7
-8 7 -18 10 -21 6 -4 -3 -7 -1 -7 4 0 6 -8 10 -17 8 -10 -1 -28 2 -40 6 -16 6
-23 5 -23 -4 0 -8 -4 -7 -10 3 -5 8 -10 10 -10 4 0 -6 -13 -9 -30 -6 -16 2
-30 8 -30 13 0 5 -5 9 -11 9 -5 0 -8 -4 -5 -8 2 -4 -9 -8 -25 -7 -18 0 -28 4
-25 12 3 7 -4 10 -20 7 -18 -3 -23 -1 -18 7 4 8 3 9 -5 5 -6 -4 -9 -11 -6 -16
6 -10 -21 -7 -31 3 -4 4 -13 -1 -21 -11 -12 -14 -14 -14 -10 -1 4 12 -2 15
-27 14 -17 0 -37 -5 -45 -9 -9 -6 -12 -5 -7 2 4 7 -15 9 -61 7 -41 -2 -74 2
-82 9 -12 9 -13 8 -6 -3z m135 -17 c0 -8 -19 -13 -24 -6 -3 5 1 9 9 9 8 0 15
-2 15 -3z m751 -2081 c13 -16 12 -17 -3 -4 -10 7 -18 15 -18 17 0 8 8 3 21
-13z m390 -946 c-6 -8 -7 -18 -3 -22 4 -5 1 -5 -6 -1 -10 6 -10 11 -1 22 6 8
14 14 16 14 3 0 0 -6 -6 -13z m-58 -212 c-3 -9 -8 -14 -10 -11 -3 3 -2 9 2 15
9 16 15 13 8 -4z"/>
<path d="M3860 5780 c-9 -6 -10 -10 -3 -10 6 0 15 5 18 10 8 12 4 12 -15 0z"/>
<path d="M8196 5593 c-6 -14 -5 -15 5 -6 7 7 10 15 7 18 -3 3 -9 -2 -12 -12z"/>
<path d="M6516 4967 c3 -10 9 -15 12 -12 3 3 0 11 -7 18 -10 9 -11 8 -5 -6z"/>
<path d="M8515 3401 c-3 -5 -2 -12 3 -15 5 -3 9 1 9 9 0 17 -3 19 -12 6z"/>
<path d="M8510 3329 c0 -5 5 -7 10 -4 6 3 10 8 10 11 0 2 -4 4 -10 4 -5 0 -10
-5 -10 -11z"/>
<path d="M8510 3299 c0 -5 5 -7 10 -4 6 3 10 8 10 11 0 2 -4 4 -10 4 -5 0 -10
-5 -10 -11z"/>
<path d="M3510 3146 c0 -2 7 -7 16 -10 8 -3 12 -2 9 4 -6 10 -25 14 -25 6z"/>
<path d="M3550 3040 c0 -5 5 -10 11 -10 5 0 7 5 4 10 -3 6 -8 10 -11 10 -2 0
-4 -4 -4 -10z"/>
<path d="M7810 2921 c0 -7 -5 -9 -12 -5 -7 5 -8 3 -3 -5 5 -9 10 -10 18 -2 6
6 8 14 4 18 -4 3 -7 1 -7 -6z"/>
<path d="M5611 2067 c2 -1 13 -9 24 -17 19 -14 19 -14 6 3 -7 9 -18 17 -24 17
-6 0 -8 -1 -6 -3z"/>
<path d="M5955 1950 c-3 -5 -1 -10 4 -10 6 0 11 5 11 10 0 6 -2 10 -4 10 -3 0
-8 -4 -11 -10z"/>
</g>
</svg>
